<svg version="1.1" id="Layer_1" xmlns="http://www.w3.org/2000/svg" xmlns:xlink="http://www.w3.org/1999/xlink" x="0px" y="0px"
	 width="100%" viewBox="0 0 1024 1024" enable-background="new 0 0 1024 1024" xml:space="preserve">
<path fill="#000000" opacity="1.000000" stroke="none" 
	d="
M709.000000,1025.000000 
	C472.666656,1025.000000 236.833328,1025.000000 1.000000,1025.000000 
	C1.000000,683.666687 1.000000,342.333344 1.000000,1.000000 
	C342.333344,1.000000 683.666687,1.000000 1025.000000,1.000000 
	C1025.000000,342.333344 1025.000000,683.666687 1025.000000,1025.000000 
	C919.833313,1025.000000 814.666687,1025.000000 709.000000,1025.000000 
M588.545044,374.903748 
	C588.716187,374.618408 588.887329,374.333069 589.675720,373.753693 
	C603.982849,357.015137 619.894348,342.108856 639.626343,331.330231 
	C629.313354,322.717957 616.222107,322.422455 607.900818,330.735168 
	C593.707214,344.914093 579.915100,359.494843 565.331787,374.172333 
	C560.010681,379.815887 554.593933,385.375183 549.469299,391.191864 
	C548.680481,392.087189 548.610657,394.578613 549.294678,395.614807 
	C550.875549,398.009552 563.572266,399.839966 565.972351,398.387634 
	C566.389404,398.135254 566.732178,397.744263 567.071655,397.382050 
	C573.730591,390.277893 580.384033,383.168518 587.017578,376.016968 
	C587.017578,376.016968 587.058533,376.042206 587.548950,375.901886 
	C587.715271,375.617615 587.881592,375.333344 588.000000,375.000000 
	C588.000000,375.000000 588.050598,375.046356 588.545044,374.903748 
M623.754456,752.005127 
	C624.860107,751.362061 625.965698,750.718994 627.674133,749.726868 
	C640.103210,740.999756 653.163452,733.029297 664.785645,723.334839 
	C676.632996,713.452820 687.066223,701.875488 698.713074,690.752686 
	C708.520325,681.144287 716.679810,670.297668 723.955322,658.355286 
	C718.674133,657.478394 713.905579,657.424683 709.755554,655.795410 
	C705.370667,654.073975 703.527954,656.605835 701.575317,659.064026 
	C694.265198,668.267212 687.149963,677.625183 679.473572,687.102051 
	C679.300293,687.390015 679.127014,687.678040 678.473022,688.142700 
	C678.284729,688.420654 678.096497,688.698608 677.289856,689.218201 
	C664.105896,703.117737 649.387329,715.373657 633.320068,725.568176 
	C620.633240,733.617798 606.495850,739.381226 592.226196,746.027344 
	C590.383301,746.656799 588.559143,747.349182 586.694519,747.905823 
	C570.458801,752.752380 553.807129,755.376709 536.124207,757.008606 
	C531.763550,757.280823 527.402893,757.553040 522.674255,757.099121 
	C522.396484,753.057678 522.118652,749.016174 521.936401,744.045471 
	C521.905151,737.359009 521.873901,730.672485 521.945312,723.056885 
	C521.906311,717.364380 521.867249,711.671875 521.920776,705.048767 
	C521.892883,691.692505 521.864990,678.336243 521.937805,664.050110 
	C521.937805,636.914001 521.937805,609.777832 521.937805,582.013550 
	C516.461487,588.438843 511.139587,594.682922 505.252747,601.277649 
	C498.049377,609.466858 491.100891,617.898865 483.583771,625.789124 
	C471.912659,638.039673 459.854370,649.921448 447.463165,662.396790 
	C446.285553,663.778748 445.184204,665.235229 443.918304,666.531006 
	C433.634521,677.057373 423.319885,687.553650 412.414001,698.337402 
	C401.124939,707.888184 389.835907,717.439026 378.110687,727.358887 
	C389.545349,730.774536 400.298157,732.330566 409.669434,724.685181 
	C416.583282,719.044556 422.611420,712.318237 429.519653,705.618958 
	C431.285156,703.642334 433.111847,701.716614 434.805359,699.680054 
	C441.481934,691.651184 451.256683,686.355408 455.514465,676.157288 
	C455.891571,675.254150 457.321045,674.806152 458.229675,674.105225 
	C459.506714,673.119995 460.753723,672.095886 462.582611,670.733276 
	C473.933228,659.118774 485.215057,647.435547 496.691437,635.946655 
	C499.033234,633.602234 502.105896,631.987854 505.256836,630.783752 
	C505.501343,632.540527 505.945435,634.295654 505.959320,636.054260 
	C506.087830,652.342163 506.142120,668.630737 505.894043,685.562561 
	C502.570740,690.015320 499.247437,694.468018 495.315735,699.205505 
	C492.494568,702.452698 489.673401,705.699951 486.274048,709.247131 
	C484.154785,711.459229 482.035492,713.671326 479.371368,716.281128 
	C475.879669,720.179504 472.387939,724.077881 468.319702,728.283142 
	C465.842957,730.848511 463.366241,733.413818 460.311340,736.292297 
	C456.899689,739.554138 453.488007,742.815918 449.293274,746.336121 
	C447.328064,746.558044 445.367188,746.916382 443.396912,746.979004 
	C433.253113,747.301208 422.700043,758.308777 421.888214,768.325439 
	C421.047302,778.701111 426.367859,785.299255 433.883728,790.819824 
	C440.961212,796.018433 452.209137,795.230103 458.904938,789.550476 
	C470.121826,780.036011 470.824951,772.339905 466.752991,759.364319 
	C466.067993,757.181519 466.943573,754.509033 467.640656,751.692749 
	C470.449402,748.817688 473.258179,745.942566 476.617615,742.705750 
	C478.762085,740.484802 480.906586,738.263855 483.592041,735.645569 
	C488.682709,730.421448 493.773376,725.197327 499.216278,719.366394 
	C500.819061,718.515381 502.421814,717.664368 504.654083,716.964478 
	C505.082001,717.020264 505.509888,717.076111 505.971130,718.050659 
	C506.054413,726.026062 506.137726,734.001526 506.082886,742.907959 
	C506.112000,750.926147 506.141113,758.944275 506.042267,767.897888 
	C506.076935,774.583557 506.111603,781.269226 506.046600,788.855530 
	C506.070831,791.550842 506.095062,794.246155 505.724457,797.518799 
	C504.894592,798.041870 504.092285,798.616150 503.230713,799.080383 
	C491.683563,805.302368 485.967773,817.920227 490.666199,828.825500 
	C494.672119,838.123474 505.004669,847.773987 518.252625,843.884399 
	C526.408936,841.489746 532.564087,836.321960 535.187622,828.285889 
	C537.893555,819.997375 537.232788,811.906128 530.034180,805.467163 
	C527.118835,802.859558 524.604126,799.804077 521.955750,796.070007 
	C521.913086,793.692200 521.870483,791.314331 521.888000,788.022156 
	C521.945740,784.063843 522.003540,780.105530 522.508911,775.943665 
	C522.800293,775.750366 522.973328,775.481018 523.951111,775.014343 
	C528.975647,774.964905 534.000183,774.915466 539.862793,774.904419 
	C543.937378,774.564148 548.085571,774.598145 552.072876,773.814026 
	C564.525208,771.364746 577.122437,769.307861 589.267395,765.747742 
	C599.153259,762.849854 608.469299,758.008179 618.000000,754.000000 
	C618.000000,754.000000 618.025635,754.040466 618.747620,754.006836 
	C620.183716,753.366760 621.619812,752.726685 623.032166,752.034851 
	C623.032166,752.034851 623.081421,752.063416 623.754456,752.005127 
M521.971802,300.329742 
	C521.922363,299.905304 521.872925,299.480896 521.944946,298.217194 
	C521.905273,296.807037 521.865662,295.396851 521.987183,293.130524 
	C521.930725,291.108215 521.874268,289.085876 521.924072,286.123627 
	C521.982300,267.099823 522.040527,248.076035 522.718018,228.773148 
	C530.824646,222.895493 537.816711,216.403961 535.964172,204.160797 
	C534.483093,190.393753 519.426514,178.377548 504.829712,184.888931 
	C491.157928,190.987671 484.539825,205.748169 494.209991,220.723312 
	C498.199219,224.149033 502.188446,227.574753 506.022461,231.926178 
	C506.016388,237.739777 505.886139,243.556854 506.049438,249.365692 
	C506.152252,253.022003 504.702393,254.962128 500.137451,255.042755 
	C497.445099,255.086838 494.752716,255.130905 491.228271,255.303864 
	C484.794006,256.200317 478.308167,256.827881 471.936279,258.049591 
	C458.928040,260.543762 445.728577,262.500305 433.065186,266.230774 
	C411.295746,272.643799 390.626770,281.829254 371.275696,295.233215 
	C360.482086,303.807617 349.688446,312.382019 338.199219,320.997375 
	C337.412079,321.552765 336.502960,321.993347 335.855988,322.680695 
	C325.647308,333.526917 315.228149,344.189941 305.391174,355.364960 
	C300.368652,361.070679 296.404175,367.707764 291.320282,374.202179 
	C286.717896,381.796448 282.115479,389.390747 277.323303,397.298187 
	C280.814331,398.328491 283.389343,399.465363 286.061707,399.782806 
	C289.486664,400.189636 294.815338,401.373322 296.126678,399.706757 
	C300.549133,394.086151 303.556244,387.351990 307.716400,380.751831 
	C315.393951,371.366974 322.843994,361.782990 330.825745,352.664459 
	C336.541168,346.135071 342.968781,340.229095 349.695435,333.765442 
	C352.474976,331.499786 355.098541,329.002472 358.060638,327.007965 
	C371.998779,317.622620 386.029877,308.375275 400.765961,298.990662 
	C403.919342,297.439453 406.979858,295.648895 410.243744,294.382568 
	C419.524902,290.781586 428.745789,286.920013 438.258392,284.048828 
	C449.020142,280.800690 460.073029,278.516998 471.866882,275.971130 
	C475.954285,275.626831 480.060242,275.425262 484.123871,274.897705 
	C488.117188,274.379333 492.067566,273.530029 496.923126,272.984314 
	C498.088623,272.989990 499.272888,273.133148 500.416229,272.976898 
	C504.727783,272.387787 506.514862,274.003418 506.099457,278.505707 
	C505.780334,281.964569 506.140564,285.486053 506.033203,289.906158 
	C506.083923,296.269043 506.134644,302.631958 506.026703,309.920898 
	C506.079834,320.606323 506.132965,331.291748 506.022858,342.904785 
	C506.082001,355.589325 506.141144,368.273895 506.039093,381.889221 
	C506.039093,389.112610 506.039093,396.335968 506.039093,403.915558 
	C510.688049,403.915558 514.486511,403.864685 518.282837,403.932068 
	C521.163818,403.983185 522.004456,402.422913 521.958374,399.843811 
	C521.845886,393.542175 521.810791,387.239136 521.846252,380.012695 
	C521.814453,367.333069 521.782654,354.653442 521.869202,341.046234 
	C521.841736,330.365631 521.814270,319.685059 521.914734,308.116547 
	C521.880615,305.729523 521.846558,303.342529 521.971802,300.329742 
M442.968079,349.996399 
	C442.968079,349.996399 442.938843,350.053894 442.986206,350.981720 
	C443.157318,362.708221 443.328430,374.434753 443.202606,386.906494 
	C443.142365,391.704529 443.171906,396.506409 442.969025,401.298401 
	C442.905457,402.799713 442.215912,404.274475 441.812897,405.761414 
	C440.264526,405.067352 438.403229,404.713776 437.218201,403.624451 
	C429.078033,396.141541 421.079346,388.504700 412.708466,380.344666 
	C404.846588,372.541199 397.439880,364.541229 391.722809,354.784851 
	C385.067261,343.426758 373.941437,343.002655 364.956329,352.576263 
	C360.958496,356.835938 359.739532,365.032501 362.410248,369.696899 
	C366.568756,376.959686 373.687286,380.908569 380.309845,378.915131 
	C385.246490,377.429108 388.957581,378.193909 392.009094,382.384735 
	C392.768463,383.427643 393.958313,384.157196 395.265839,385.624573 
	C409.150391,399.099854 423.034943,412.575134 437.246063,426.646179 
	C439.555817,429.469513 441.865601,432.292877 444.079254,436.028778 
	C444.081238,495.900085 444.076965,555.771362 444.123444,615.642700 
	C444.124542,617.046326 444.695709,618.449646 445.017120,620.805847 
	C445.017120,625.834534 445.017120,630.863220 445.017120,636.111450 
	C453.681274,627.569458 461.855103,619.614075 469.904175,611.534424 
	C474.333862,607.087891 478.553711,602.432312 482.928925,596.959961 
	C482.908966,563.272095 482.889008,529.584167 482.941864,494.974670 
	C482.978973,487.185913 482.843658,479.389282 483.198120,471.614990 
	C483.269318,470.053040 485.251160,467.227966 486.268250,467.265320 
	C498.205688,467.704102 510.456177,464.626678 522.401611,470.559235 
	C524.582214,472.990723 527.149475,475.177338 528.872864,477.898438 
	C534.608643,486.955078 533.879761,496.426117 529.449280,506.385406 
	C524.877625,515.601196 516.527466,518.300842 507.203491,518.890198 
	C503.905090,519.098694 502.896027,520.259766 502.940216,523.395325 
	C503.074066,532.889465 503.128296,542.388489 502.959747,551.881165 
	C502.888611,555.886902 504.591278,557.347839 508.354950,556.976379 
	C513.136230,556.504517 517.964661,556.321289 522.692566,555.532776 
	C536.768250,553.185242 547.622437,545.657959 556.807312,534.870972 
	C566.217468,523.819458 570.228760,511.110992 570.893433,496.044678 
	C570.913879,492.909058 571.236389,489.740479 570.898132,486.644043 
	C569.882324,477.345520 568.437622,468.126740 562.433716,459.708344 
	C560.693115,457.311798 559.001648,454.877716 557.203186,452.525391 
	C550.248413,443.428802 541.872681,436.158081 531.071289,431.877106 
	C516.016418,425.910248 500.286316,428.454376 484.793701,428.173645 
	C483.875885,428.157043 482.225281,430.398193 482.105133,431.698608 
	C481.745148,435.595734 481.975647,439.547424 481.975647,445.262756 
	C478.198059,442.858002 475.494751,441.547119 473.286133,439.657959 
	C465.115356,432.669037 457.384644,425.349701 459.865479,412.043365 
	C459.834839,402.019135 459.804230,391.994934 459.875885,381.042236 
	C459.843506,370.354492 459.811096,359.666779 459.937775,348.274902 
	C461.098602,346.527985 462.092377,344.637299 463.450012,343.059753 
	C468.566620,337.114136 470.846832,330.590820 467.961365,322.171783 
	C464.552643,314.594269 459.467163,309.052795 450.704376,308.002625 
	C441.305817,306.876221 434.635254,310.976959 429.330414,319.302734 
	C423.931152,330.790558 428.137329,340.917969 440.111023,348.479492 
	C440.322723,348.784637 440.610382,348.899292 441.435455,348.947815 
	C441.435455,348.947815 441.903137,349.046448 442.119507,349.512726 
	C442.401917,349.695282 442.684326,349.877869 442.968079,349.996399 
M585.732178,631.007202 
	C586.809875,631.360291 587.887634,631.713379 589.241394,632.672241 
	C597.901917,641.458557 606.562378,650.244873 615.059448,659.899475 
	C615.050049,660.730286 615.050110,661.561401 615.029846,662.391907 
	C614.746887,674.014282 623.378235,681.414307 631.843323,682.880127 
	C642.337769,684.697266 650.616150,676.265686 653.368774,667.895996 
	C654.242554,665.239319 653.211792,661.956299 652.959106,658.244934 
	C647.730042,647.593994 641.544495,643.622437 630.867493,645.218140 
	C626.929932,645.806580 624.248779,644.571655 621.791016,642.270874 
	C613.586182,634.589783 605.554382,626.724243 597.392090,618.997131 
	C596.127014,617.799500 594.525940,616.956726 592.998169,615.247009 
	C590.332642,612.840759 587.667114,610.434509 584.983032,607.340759 
	C584.644043,605.803650 584.024048,604.268921 584.011475,602.729126 
	C583.927185,592.407532 584.048340,582.083618 583.892822,571.763672 
	C583.869568,570.220459 582.853149,567.431763 582.111084,567.367798 
	C577.835510,566.999634 573.317383,566.616211 569.308411,567.749084 
	C568.140015,568.079407 568.307495,573.355103 567.988098,576.377136 
	C567.831482,577.858948 568.190430,579.416870 567.901917,580.857422 
	C567.572998,582.499939 566.782715,584.050110 566.192871,585.640381 
	C564.556763,585.006287 562.515991,584.784973 561.364685,583.656311 
	C558.527222,580.874756 556.098267,577.676636 552.992249,574.046570 
	C549.546509,577.692017 547.144653,580.325989 544.638611,582.856873 
	C542.386902,585.130859 542.671753,587.184875 544.820496,589.315308 
	C549.431396,593.886780 554.019836,598.481262 558.583740,603.099609 
	C561.814392,606.368713 564.989807,609.692444 568.079163,613.924805 
	C568.129089,628.928833 568.179016,643.932861 568.097595,659.878418 
	C567.993713,668.566895 567.889832,677.255310 567.314392,686.396912 
	C565.701721,688.277954 564.332642,690.462158 562.434021,691.987244 
	C554.475708,698.380005 554.465637,711.738281 561.166992,719.766235 
	C568.491211,728.540344 583.343872,728.903564 589.371582,723.217102 
	C600.167969,713.032043 601.447632,701.017334 592.038696,691.603210 
	C589.598145,689.161316 586.688416,687.188354 583.970459,684.062927 
	C583.895325,676.023682 583.820190,667.984436 583.827087,659.018616 
	C583.862122,652.548279 583.792297,646.074829 583.980042,639.608948 
	C584.063965,636.718750 584.665222,633.843689 585.732178,631.007202 
M319.822052,465.024933 
	C325.886932,463.292969 331.951813,461.561005 338.756073,459.914490 
	C339.498413,459.884521 340.240723,459.854553 341.855316,459.954254 
	C343.909790,459.916748 345.964233,459.879242 348.861938,459.932678 
	C369.434296,461.912903 385.160950,472.017487 396.764252,489.376434 
	C405.903656,480.775726 414.549469,472.639557 423.710999,464.018036 
	C420.143524,460.408661 417.060303,457.289215 413.413147,453.775696 
	C412.869995,452.953247 412.438934,452.023071 411.767334,451.324036 
	C394.352844,433.200134 372.916290,423.742340 347.942291,423.212830 
	C338.664185,423.016174 329.336853,425.140045 319.259674,426.155060 
	C314.153381,428.062561 309.047089,429.970093 303.232483,432.014709 
	C298.469971,434.962036 293.707458,437.909363 288.359009,441.199677 
	C282.872284,446.449371 277.385559,451.699066 271.320740,457.289490 
	C267.521820,463.160706 263.722870,469.031921 259.399109,475.380737 
	C257.935669,479.048279 256.013336,482.605927 255.103470,486.406036 
	C253.157455,494.533875 251.735291,502.787201 250.033463,511.924225 
	C249.655624,522.506958 250.238174,532.969116 253.999542,543.811890 
	C259.180298,564.816467 271.878937,580.702759 288.447144,593.801270 
	C306.307251,607.921204 326.898163,613.776855 349.481262,612.844971 
	C350.990051,612.782654 353.638123,611.071838 353.709747,609.992126 
	C354.380066,599.881958 354.688171,589.743408 354.823700,579.609253 
	C354.837097,578.606628 352.870758,576.598450 352.049805,576.710815 
	C340.073639,578.351074 328.944397,575.379211 317.558563,570.452087 
	C314.961609,569.028442 312.053589,567.978943 309.818298,566.120361 
	C295.691345,554.374329 287.323517,539.481018 285.922974,520.050537 
	C284.666565,510.028748 288.528809,501.128571 292.350372,491.888580 
	C292.415985,491.769836 292.566925,491.601929 292.531921,491.541168 
	C292.402313,491.316193 292.211334,491.126587 292.055389,490.990234 
	C292.055389,490.990234 292.113068,490.954987 292.342255,490.460815 
	C295.596252,485.986603 298.850250,481.512390 302.668304,476.691650 
	C308.132690,472.835999 313.597046,468.980347 319.822052,465.024933 
M730.122620,435.949707 
	C724.075989,433.038055 718.029297,430.126404 711.311462,426.833160 
	C701.200439,425.294342 691.089355,423.755524 680.101685,422.106964 
	C677.319519,422.395752 674.538635,422.697815 671.754944,422.971100 
	C655.835815,424.534088 640.908813,429.037445 628.196960,439.026581 
	C622.053101,443.854523 616.641602,449.614441 610.317078,455.276886 
	C605.859741,461.845520 601.402405,468.414185 596.414368,475.441376 
	C591.105103,485.984680 589.430664,497.423157 588.059875,509.898193 
	C588.386353,517.778259 587.931580,525.792847 589.259705,533.500305 
	C590.577942,541.150757 593.690613,548.491882 596.129150,556.685364 
	C599.499695,562.574036 602.087708,569.134583 606.428284,574.190491 
	C612.603760,581.383728 620.066650,587.471558 627.322998,594.610718 
	C630.698975,596.971375 633.876770,599.705078 637.487793,601.623230 
	C648.689209,607.573242 660.424683,611.444397 673.344727,612.225098 
	C683.553040,612.841919 693.385498,612.527161 703.769531,609.010559 
	C708.307312,606.596008 712.807434,605.430420 717.031860,609.601868 
	C721.856750,614.366272 726.649841,619.162903 731.447327,623.954956 
	C743.687927,636.181519 755.920837,648.415771 768.164246,660.639526 
	C769.392883,661.866150 770.672852,663.041321 772.018860,664.326233 
	C772.544556,663.513000 772.860596,663.252014 772.861633,662.989807 
	C772.915344,649.017090 772.984863,635.044128 772.905029,621.071960 
	C772.897278,619.710510 772.318787,617.985901 771.383850,617.051941 
	C759.980408,605.661987 748.460571,594.388550 736.366638,582.767761 
	C732.423279,578.601562 728.526001,574.390564 724.523987,570.281494 
	C720.275513,565.919495 715.927734,561.654236 711.507935,557.231262 
	C707.117493,560.822815 703.268494,564.247314 699.134583,567.283813 
	C693.870728,571.150269 689.302185,576.667664 681.781555,575.937195 
	C677.499878,575.521179 673.250671,574.771179 668.203186,574.081604 
	C666.626099,573.647156 664.994568,573.351257 663.480652,572.756104 
	C652.432800,568.412964 642.500427,562.442444 634.708435,552.348206 
	C626.506653,539.507019 621.443298,525.874390 623.992981,510.284485 
	C624.389099,507.862579 624.556152,505.403168 625.184814,502.315247 
	C629.404724,494.201904 633.624573,486.088562 638.272705,477.445068 
	C653.841553,463.262848 672.052307,457.406097 693.510803,460.612030 
	C697.658447,461.769257 701.806152,462.926483 706.440430,464.578857 
	C713.279419,469.412872 720.118347,474.246918 727.302429,479.658813 
	C728.252930,481.008087 729.233215,482.337463 730.149170,483.709839 
	C738.304260,495.929413 741.984009,509.261230 740.048767,524.822754 
	C738.224670,531.166809 736.302429,537.485352 734.637512,543.870911 
	C734.151306,545.735901 733.509216,548.614807 734.449341,549.630554 
	C742.094055,557.889282 750.097900,565.815613 758.097595,573.950256 
	C759.565247,572.669739 760.507385,571.988525 761.268555,571.144165 
	C762.039856,570.288330 762.647217,569.281433 763.300903,568.323303 
	C770.698059,557.479492 773.998230,545.179016 775.835083,532.416260 
	C777.548828,520.508667 777.183777,508.657135 773.996582,496.174408 
	C773.963440,495.112610 773.930237,494.050781 773.714844,492.558655 
	C773.535645,492.293976 773.304626,492.087250 772.962158,491.170258 
	C768.550293,474.486511 759.915710,460.393524 746.685303,448.348114 
	C741.254761,444.420685 735.824280,440.493225 730.122620,435.949707 
M734.919983,376.296661 
	C728.624756,367.843414 722.329590,359.390137 715.705872,350.356720 
	C700.479187,335.557709 685.252441,320.758698 669.605896,305.439362 
	C662.645752,300.408813 655.986938,294.880005 648.663147,290.450775 
	C633.120605,281.051025 617.195374,272.285583 601.539856,263.068542 
	C599.939270,262.126251 598.914673,259.987885 597.950562,258.225250 
	C595.546509,253.830368 593.331482,249.332108 590.707642,244.302979 
	C585.182495,238.029465 578.536011,235.779449 570.028809,236.775284 
	C556.581787,238.349396 544.707214,254.862534 551.105469,269.669800 
	C551.826111,270.950409 552.438660,272.307709 553.284180,273.499756 
	C561.459595,285.026123 575.018982,288.597229 585.166992,281.249390 
	C589.513123,278.102478 592.342102,277.883728 597.014343,280.802429 
	C607.925903,287.618835 619.531677,293.312500 630.618530,299.863342 
	C639.259216,304.968842 647.541565,310.680817 656.297302,316.705750 
	C657.022461,317.387207 657.697937,318.132568 658.480042,318.740692 
	C675.285034,331.807648 690.668152,346.330597 704.256470,363.624146 
	C710.140015,371.431335 716.023621,379.238495 722.058716,387.731476 
	C726.559509,395.855255 730.816101,404.128815 735.668152,412.037048 
	C737.955505,415.764923 741.226318,418.948792 744.333740,422.100922 
	C749.670593,427.514557 755.227173,432.711639 760.695068,437.995941 
	C761.829468,439.092255 762.979675,440.172180 764.742920,441.849823 
	C764.742920,440.232391 764.876465,439.564026 764.723450,438.969482 
	C760.724548,423.436859 754.526062,408.763947 746.757568,394.792877 
	C743.316711,388.604767 739.002930,382.902100 734.919983,376.296661 
M372.454987,615.385376 
	C363.912170,624.464722 355.466125,633.639160 346.730560,642.529175 
	C345.286530,643.998779 342.632996,644.468811 340.440369,644.982178 
	C328.741058,647.721680 324.255707,658.414917 328.002075,668.501648 
	C330.872162,676.229065 339.184784,679.883362 346.760498,678.020142 
	C355.428894,675.888123 360.830750,669.446350 359.791748,660.690735 
	C359.083588,654.722778 361.418701,650.990112 365.249908,647.174133 
	C376.928253,635.542114 388.439392,623.742126 400.580963,611.662109 
	C408.265198,603.664490 415.949402,595.666931 422.768036,588.570251 
	C413.680084,579.435303 404.940887,570.650940 396.130402,561.794922 
	C391.247406,566.236511 385.988739,571.308838 380.412567,576.004089 
	C375.623932,580.036255 373.437836,584.560303 373.801880,591.098511 
	C374.242035,599.004089 373.295013,606.987000 372.454987,615.385376 
z"/>
<path fill="#123E5B" opacity="1.000000" stroke="none" 
	d="
M521.994751,470.034180 
	C510.456177,464.626678 498.205688,467.704102 486.268250,467.265320 
	C485.251160,467.227966 483.269318,470.053040 483.198120,471.614990 
	C482.843658,479.389282 482.978973,487.185913 482.695740,495.094757 
	C482.298004,490.580322 481.853882,485.931519 482.079498,481.315430 
	C482.292206,476.962860 481.075226,474.679413 476.432587,473.760712 
	C469.116577,472.312988 461.978912,469.983154 454.699097,468.318298 
	C453.109009,467.954620 451.198944,468.679413 449.508301,469.157684 
	C447.965851,469.594086 446.521149,470.375977 445.021301,470.536499 
	C445.007751,462.979279 445.105286,455.889221 444.969452,448.803619 
	C444.881927,444.237762 444.451874,439.678467 444.175354,435.116211 
	C441.865601,432.292877 439.555817,429.469513 437.378235,426.170532 
	C438.448242,423.955444 439.613159,422.297302 440.272064,420.457886 
	C441.338104,417.481903 442.071594,414.386749 442.698090,412.203888 
	C446.811371,414.119720 449.698303,416.362305 452.730713,416.580139 
	C454.977417,416.741577 457.413300,414.270691 459.764893,412.972443 
	C457.384644,425.349701 465.115356,432.669037 473.286133,439.657959 
	C475.494751,441.547119 478.198059,442.858002 481.975647,445.262756 
	C481.975647,439.547424 481.745148,435.595734 482.105133,431.698608 
	C482.225281,430.398193 483.875885,428.157043 484.793701,428.173645 
	C500.286316,428.454376 516.016418,425.910248 531.071289,431.877106 
	C541.872681,436.158081 550.248413,443.428802 557.203186,452.525391 
	C559.001648,454.877716 560.693115,457.311798 562.606812,460.197632 
	C560.539612,461.122772 557.180847,460.804932 556.279297,462.142914 
	C554.028076,465.483765 551.183960,466.588562 547.774353,465.907196 
	C542.677429,464.888611 537.703918,463.252747 533.533081,462.113129 
	C531.075500,463.415314 528.896118,465.597870 527.143433,465.296722 
	C522.731812,464.538666 521.682373,466.247467 521.994751,470.034180 
z"/>
<path fill="#072134" opacity="1.000000" stroke="none" 
	d="
M318.035767,570.948792 
	C328.944397,575.379211 340.073639,578.351074 352.049805,576.710815 
	C352.870758,576.598450 354.837097,578.606628 354.823700,579.609253 
	C354.688171,589.743408 354.380066,599.881958 353.709747,609.992126 
	C353.638123,611.071838 350.990051,612.782654 349.481262,612.844971 
	C326.898163,613.776855 306.307251,607.921204 288.447144,593.801270 
	C271.878937,580.702759 259.180298,564.816467 254.271301,543.294189 
	C255.863022,543.161926 257.359192,543.270081 258.474152,543.978333 
	C265.311584,548.321411 271.855927,553.168762 278.904144,557.124329 
	C285.208923,560.662659 292.908020,561.750000 297.591583,568.121582 
	C297.977753,568.646973 299.220062,568.980774 299.889679,568.789856 
	C304.575928,567.453918 308.094421,570.132080 312.041016,571.769165 
	C313.649139,572.436157 316.014771,571.277039 318.035767,570.948792 
z"/>
<path fill="#072134" opacity="1.000000" stroke="none" 
	d="
M703.024536,609.044556 
	C693.385498,612.527161 683.553040,612.841919 673.344727,612.225098 
	C660.424683,611.444397 648.689209,607.573242 637.487793,601.623230 
	C633.876770,599.705078 630.698975,596.971375 627.490906,594.082153 
	C634.468384,593.817261 641.277893,594.080933 648.086304,594.344482 
	C648.274231,588.049866 648.313110,588.476257 655.085938,587.859009 
	C660.271362,587.386414 665.425781,585.932556 670.434143,584.394470 
	C673.530762,583.443542 673.915100,578.832886 671.454407,576.464844 
	C670.645386,575.686340 669.810059,574.935242 668.986816,574.171570 
	C673.250671,574.771179 677.499878,575.521179 681.781555,575.937195 
	C689.302185,576.667664 693.870728,571.150269 699.134583,567.283813 
	C703.268494,564.247314 707.117493,560.822815 711.507935,557.231262 
	C715.927734,561.654236 720.275513,565.919495 724.523987,570.281494 
	C728.526001,574.390564 732.423279,578.601562 736.591736,583.281738 
	C734.625793,584.863220 732.514160,586.584106 730.227112,586.862183 
	C725.470459,587.440674 720.335022,586.304138 715.887207,587.641541 
	C711.115723,589.076172 706.889648,592.440247 702.582397,595.206604 
	C701.720886,595.759949 701.057007,597.470642 701.178650,598.548828 
	C701.575928,602.072021 702.378113,605.549500 703.024536,609.044556 
z"/>
<path fill="#051B2C" opacity="1.000000" stroke="none" 
	d="
M703.397095,609.027588 
	C702.378113,605.549500 701.575928,602.072021 701.178650,598.548828 
	C701.057007,597.470642 701.720886,595.759949 702.582397,595.206604 
	C706.889648,592.440247 711.115723,589.076172 715.887207,587.641541 
	C720.335022,586.304138 725.470459,587.440674 730.227112,586.862183 
	C732.514160,586.584106 734.625793,584.863220 736.893921,583.440308 
	C748.460571,594.388550 759.980408,605.661987 771.383850,617.051941 
	C772.318787,617.985901 772.897278,619.710510 772.905029,621.071960 
	C772.984863,635.044128 772.915344,649.017090 772.861633,662.989807 
	C772.860596,663.252014 772.544556,663.513000 772.018860,664.326233 
	C770.672852,663.041321 769.392883,661.866150 768.164246,660.639526 
	C755.920837,648.415771 743.687927,636.181519 731.447327,623.954956 
	C726.649841,619.162903 721.856750,614.366272 717.031860,609.601868 
	C712.807434,605.430420 708.307312,606.596008 703.397095,609.027588 
z"/>
<path fill="#0C2F46" opacity="1.000000" stroke="none" 
	d="
M570.816406,496.970184 
	C570.228760,511.110992 566.217468,523.819458 556.807312,534.870972 
	C547.622437,545.657959 536.768250,553.185242 522.692566,555.532776 
	C517.964661,556.321289 513.136230,556.504517 508.354950,556.976379 
	C504.591278,557.347839 502.888611,555.886902 502.959747,551.881165 
	C503.128296,542.388489 503.074066,532.889465 502.940216,523.395325 
	C502.896027,520.259766 503.905090,519.098694 507.203491,518.890198 
	C516.527466,518.300842 524.877625,515.601196 529.879395,506.461914 
	C531.955627,507.838440 534.208984,510.595795 535.150024,510.203705 
	C541.599121,507.516479 547.937927,504.453705 553.986145,500.948975 
	C559.300110,497.869720 564.237000,494.254669 570.816406,496.970184 
z"/>
<path fill="#0F4160" opacity="1.000000" stroke="none" 
	d="
M596.945068,474.982788 
	C601.402405,468.414185 605.859741,461.845520 610.924683,455.303070 
	C614.793518,458.498505 618.337463,457.939117 622.541260,457.184998 
	C630.092407,455.830383 637.713867,455.207214 643.963501,450.086914 
	C644.180969,449.908722 644.613464,450.011902 644.936096,449.940460 
	C654.148560,447.899719 663.090027,445.466736 669.802490,437.996552 
	C671.564880,436.035278 674.726868,435.403381 676.885315,433.703003 
	C678.531738,432.405823 680.121826,430.564209 680.793823,428.636047 
	C681.465515,426.708954 680.965027,424.373260 680.978394,422.216675 
	C691.089355,423.755524 701.200439,425.294342 711.721924,427.356323 
	C712.127502,429.130371 712.655945,430.940277 712.028625,431.538849 
	C708.648438,434.763824 704.809448,437.513306 701.480408,440.784668 
	C699.611694,442.621033 698.002441,444.978821 697.021057,447.403229 
	C695.360596,451.505280 694.290588,455.846375 692.972412,460.086975 
	C672.052307,457.406097 653.841553,463.262848 637.677856,477.690674 
	C628.827759,477.101044 620.503601,475.243439 612.342041,475.794647 
	C607.016418,476.154327 602.037109,476.233154 596.945068,474.982788 
z"/>
<path fill="#165279" opacity="1.000000" stroke="none" 
	d="
M340.983063,459.824615 
	C340.240723,459.854553 339.498413,459.884521 338.273621,459.564484 
	C329.137177,453.026428 320.488647,446.830627 311.815338,440.669769 
	C311.300537,440.304108 310.602203,440.135284 309.962952,440.016235 
	C305.414886,439.169403 303.516296,436.389832 303.940796,431.877625 
	C309.047089,429.970093 314.153381,428.062561 319.748901,426.485291 
	C324.528015,433.939026 332.366882,436.741364 338.991638,440.145874 
	C343.954834,442.696503 349.835968,447.110352 356.781372,444.238037 
	C357.867493,443.788879 359.773224,445.275421 361.282135,445.909271 
	C362.458466,446.403351 363.562775,447.262817 364.775726,447.442444 
	C370.281128,448.257721 375.827759,448.794495 381.332977,449.610748 
	C388.747650,450.710114 396.160645,451.853088 403.525604,453.237030 
	C405.899567,453.683105 408.237396,454.732605 410.377930,455.898529 
	C412.677490,457.151123 413.793243,456.873627 413.977081,454.169800 
	C417.060303,457.289215 420.143524,460.408661 423.710999,464.018036 
	C414.549469,472.639557 405.903656,480.775726 396.764252,489.376434 
	C385.160950,472.017487 369.434296,461.912903 348.355713,459.571259 
	C345.227905,455.698212 343.105560,457.762268 340.983063,459.824615 
z"/>
<path fill="#1A4B6A" opacity="1.000000" stroke="none" 
	d="
M591.040649,244.875336 
	C593.331482,249.332108 595.546509,253.830368 597.950562,258.225250 
	C598.914673,259.987885 599.939270,262.126251 601.539856,263.068542 
	C617.195374,272.285583 633.120605,281.051025 648.663147,290.450775 
	C655.986938,294.880005 662.645752,300.408813 669.731934,306.047791 
	C668.083008,308.658691 666.308044,310.661224 664.544617,312.650635 
	C660.519409,309.333038 657.877502,310.461578 655.983154,316.123291 
	C647.541565,310.680817 639.259216,304.968842 630.618530,299.863342 
	C619.531677,293.312500 607.925903,287.618835 597.014343,280.802429 
	C592.342102,277.883728 589.513123,278.102478 585.166992,281.249390 
	C575.018982,288.597229 561.459595,285.026123 553.284180,273.499756 
	C552.438660,272.307709 551.826111,270.950409 551.548584,269.326111 
	C554.465332,268.676239 556.938965,268.370087 559.412537,268.063934 
	C558.963928,267.626190 558.515381,267.188416 558.066833,266.750641 
	C558.768066,264.162384 559.469299,261.574158 560.227356,259.387268 
	C560.804932,269.204041 566.212036,274.284454 574.777588,273.406250 
	C582.549255,272.609436 587.744934,266.128601 585.844055,258.286530 
	C585.032410,254.938049 581.854492,252.163147 580.167236,249.081390 
	C582.813232,248.787430 585.106262,248.095123 587.259521,248.397614 
	C590.377808,248.835678 590.932495,247.278854 591.040649,244.875336 
z"/>
<path fill="#09283D" opacity="1.000000" stroke="none" 
	d="
M482.868164,597.870972 
	C478.553711,602.432312 474.333862,607.087891 469.904175,611.534424 
	C461.855103,619.614075 453.681274,627.569458 445.017120,636.111450 
	C445.017120,630.863220 445.017120,625.834534 444.984406,619.874207 
	C445.000488,598.635315 445.049286,578.328003 445.467499,558.009888 
	C447.383179,557.211548 448.856781,556.081726 450.496277,555.734253 
	C452.096741,555.395020 454.714874,555.180542 455.424255,556.073120 
	C460.021088,561.857422 466.183838,564.301575 473.157104,564.905151 
	C476.051361,565.155640 479.037781,564.341919 481.984039,564.480103 
	C481.990692,571.370239 481.889709,577.794861 482.036377,584.213867 
	C482.140533,588.770203 482.578918,593.318848 482.868164,597.870972 
z"/>
<path fill="#36CAF5" opacity="1.000000" stroke="none" 
	d="
M470.999329,275.813904 
	C460.073029,278.516998 449.020142,280.800690 438.258392,284.048828 
	C428.745789,286.920013 419.524902,290.781586 410.243744,294.382568 
	C406.979858,295.648895 403.919342,297.439453 400.128662,298.788391 
	C392.650116,296.954102 385.808868,295.322052 378.643951,293.612793 
	C376.893280,295.119232 375.214661,298.843536 371.923798,294.976379 
	C390.626770,281.829254 411.295746,272.643799 433.065186,266.230774 
	C445.728577,262.500305 458.928040,260.543762 471.936279,258.049591 
	C478.308167,256.827881 484.794006,256.200317 491.927551,255.428131 
	C495.800323,256.322174 497.060272,258.124268 494.685089,260.777985 
	C492.542023,263.172394 490.094391,265.427002 487.411438,267.176392 
	C482.566650,270.335419 478.425934,275.152924 471.776672,274.627625 
	C471.550201,274.609741 471.259888,275.400208 470.999329,275.813904 
z"/>
<path fill="#0C2F46" opacity="1.000000" stroke="none" 
	d="
M596.016296,555.968689 
	C593.690613,548.491882 590.577942,541.150757 589.259705,533.500305 
	C587.931580,525.792847 588.386353,517.778259 588.500244,509.431946 
	C594.240784,507.658112 599.715454,504.827393 604.799194,505.409790 
	C611.936768,506.227509 618.250061,504.457123 624.829102,502.961121 
	C624.556152,505.403168 624.389099,507.862579 623.992981,510.284485 
	C621.443298,525.874390 626.506653,539.507019 634.850952,553.039001 
	C633.309204,559.261169 624.627502,561.552429 618.514709,559.193115 
	C612.441895,556.849182 605.874207,555.741272 599.465027,554.363403 
	C598.476196,554.150879 597.173706,555.397095 596.016296,555.968689 
z"/>
<path fill="#072134" opacity="1.000000" stroke="none" 
	d="
M774.065552,496.967133 
	C777.183777,508.657135 777.548828,520.508667 775.835083,532.416260 
	C773.998230,545.179016 770.698059,557.479492 763.300903,568.323303 
	C762.647217,569.281433 762.039856,570.288330 761.268555,571.144165 
	C760.507385,571.988525 759.565247,572.669739 758.097595,573.950256 
	C750.097900,565.815613 742.094055,557.889282 734.449341,549.630554 
	C733.509216,548.614807 734.151306,545.735901 734.637512,543.870911 
	C736.302429,537.485352 738.224670,531.166809 740.436340,524.382324 
	C742.570374,523.065369 744.346008,522.242065 746.057861,521.302490 
	C751.005188,518.587036 756.026733,515.985962 760.817261,513.014404 
	C763.294128,511.477997 766.971375,509.464264 767.255005,507.293610 
	C767.898193,502.370941 771.119873,499.932770 774.065552,496.967133 
z"/>
<path fill="#082A42" opacity="1.000000" stroke="none" 
	d="
M774.031067,496.570770 
	C771.119873,499.932770 767.898193,502.370941 767.255005,507.293610 
	C766.971375,509.464264 763.294128,511.477997 760.817261,513.014404 
	C756.026733,515.985962 751.005188,518.587036 746.057861,521.302490 
	C744.346008,522.242065 742.570374,523.065369 740.470032,523.953125 
	C741.984009,509.261230 738.304260,495.929413 730.149170,483.709839 
	C729.233215,482.337463 728.252930,481.008087 727.282349,479.056824 
	C731.880188,472.994629 736.487122,467.497925 743.349304,464.689117 
	C746.748291,463.297852 748.212463,461.047638 747.636902,457.306824 
	C747.211426,454.541443 747.218262,451.709503 747.032471,448.907227 
	C759.915710,460.393524 768.550293,474.486511 773.107727,491.754089 
	C773.433655,492.588837 773.648254,492.805847 773.897095,492.988983 
	C773.930237,494.050781 773.963440,495.112610 774.031067,496.570770 
z"/>
<path fill="#1A85C4" opacity="1.000000" stroke="none" 
	d="
M698.118530,691.040405 
	C687.066223,701.875488 676.632996,713.452820 664.785645,723.334839 
	C653.163452,733.029297 640.103210,740.999756 627.003784,749.889771 
	C625.249390,750.722961 624.165405,751.393188 623.081421,752.063354 
	C623.081421,752.063416 623.032166,752.034851 622.655762,752.038879 
	C620.861511,752.708801 619.443604,753.374634 618.025635,754.040527 
	C618.025635,754.040466 618.000000,754.000000 617.630188,753.978882 
	C608.354797,752.567993 599.449280,751.178223 589.937439,749.693848 
	C591.314331,748.106384 592.158508,747.133179 593.002625,746.159973 
	C606.495850,739.381226 620.633240,733.617798 633.320068,725.568176 
	C649.387329,715.373657 664.105896,703.117737 677.984253,689.104309 
	C681.044312,689.842163 683.370789,691.251831 685.784302,691.420959 
	C689.866760,691.707153 694.004211,691.208862 698.118530,691.040405 
z"/>
<path fill="#09283D" opacity="1.000000" stroke="none" 
	d="
M596.072754,556.327026 
	C597.173706,555.397095 598.476196,554.150879 599.465027,554.363403 
	C605.874207,555.741272 612.441895,556.849182 618.514709,559.193115 
	C624.627502,561.552429 633.309204,559.261169 635.007202,553.344360 
	C642.500427,562.442444 652.432800,568.412964 663.480652,572.756104 
	C664.994568,573.351257 666.626099,573.647156 668.594971,574.126587 
	C669.810059,574.935242 670.645386,575.686340 671.454407,576.464844 
	C673.915100,578.832886 673.530762,583.443542 670.434143,584.394470 
	C665.425781,585.932556 660.271362,587.386414 655.085938,587.859009 
	C648.313110,588.476257 648.274231,588.049866 648.086304,594.344482 
	C641.277893,594.080933 634.468384,593.817261 627.319214,593.792664 
	C620.066650,587.471558 612.603760,581.383728 606.428284,574.190491 
	C602.087708,569.134583 599.499695,562.574036 596.072754,556.327026 
z"/>
<path fill="#072134" opacity="1.000000" stroke="none" 
	d="
M400.015594,612.007568 
	C388.439392,623.742126 376.928253,635.542114 365.249908,647.174133 
	C361.418701,650.990112 359.083588,654.722778 359.791748,660.690735 
	C360.830750,669.446350 355.428894,675.888123 346.760498,678.020142 
	C339.184784,679.883362 330.872162,676.229065 328.002075,668.501648 
	C324.255707,658.414917 328.741058,647.721680 340.440369,644.982178 
	C342.632996,644.468811 345.286530,643.998779 346.730560,642.529175 
	C355.466125,633.639160 363.912170,624.464722 372.895264,615.446533 
	C374.750793,615.553467 376.389008,616.082825 377.538757,615.552795 
	C380.765564,614.065125 383.653381,611.077942 386.930237,610.653564 
	C391.162567,610.105408 395.642365,611.467896 400.015594,612.007568 
z"/>
<path fill="#09283D" opacity="1.000000" stroke="none" 
	d="
M400.298279,611.834839 
	C395.642365,611.467896 391.162567,610.105408 386.930237,610.653564 
	C383.653381,611.077942 380.765564,614.065125 377.538757,615.552795 
	C376.389008,616.082825 374.750793,615.553467 373.141937,615.222046 
	C373.295013,606.987000 374.242035,599.004089 373.801880,591.098511 
	C373.437836,584.560303 375.623932,580.036255 380.412567,576.004089 
	C385.988739,571.308838 391.247406,566.236511 396.130402,561.794922 
	C404.940887,570.650940 413.680084,579.435303 422.768036,588.570251 
	C415.949402,595.666931 408.265198,603.664490 400.298279,611.834839 
z"/>
<path fill="#09283D" opacity="1.000000" stroke="none" 
	d="
M317.797180,570.700439 
	C316.014771,571.277039 313.649139,572.436157 312.041016,571.769165 
	C308.094421,570.132080 304.575928,567.453918 299.889679,568.789856 
	C299.220062,568.980774 297.977753,568.646973 297.591583,568.121582 
	C292.908020,561.750000 285.208923,560.662659 278.904144,557.124329 
	C271.855927,553.168762 265.311584,548.321411 258.474152,543.978333 
	C257.359192,543.270081 255.863022,543.161926 254.241547,542.908020 
	C250.238174,532.969116 249.655624,522.506958 250.420990,511.532410 
	C256.813690,513.583313 262.810303,515.780823 269.549774,515.194214 
	C271.256622,515.045715 273.412689,516.281738 274.842743,517.494324 
	C278.098572,520.254883 281.634583,521.537842 285.850616,520.973206 
	C287.323517,539.481018 295.691345,554.374329 309.818298,566.120361 
	C312.053589,567.978943 314.961609,569.028442 317.797180,570.700439 
z"/>
<path fill="#103650" opacity="1.000000" stroke="none" 
	d="
M570.854919,496.507446 
	C564.237000,494.254669 559.300110,497.869720 553.986145,500.948975 
	C547.937927,504.453705 541.599121,507.516479 535.150024,510.203705 
	C534.208984,510.595795 531.955627,507.838440 530.133789,506.240784 
	C533.879761,496.426117 534.608643,486.955078 528.872864,477.898438 
	C527.149475,475.177338 524.582214,472.990723 522.198181,470.296692 
	C521.682373,466.247467 522.731812,464.538666 527.143433,465.296722 
	C528.896118,465.597870 531.075500,463.415314 533.533081,462.113129 
	C537.703918,463.252747 542.677429,464.888611 547.774353,465.907196 
	C551.183960,466.588562 554.028076,465.483765 556.279297,462.142914 
	C557.180847,460.804932 560.539612,461.122772 562.869873,460.415649 
	C568.437622,468.126740 569.882324,477.345520 570.898132,486.644043 
	C571.236389,489.740479 570.913879,492.909058 570.854919,496.507446 
z"/>
<path fill="#103650" opacity="1.000000" stroke="none" 
	d="
M482.898529,597.415466 
	C482.578918,593.318848 482.140533,588.770203 482.036377,584.213867 
	C481.889709,577.794861 481.990692,571.370239 481.990234,564.010071 
	C481.993958,548.917053 481.884583,534.760620 482.055389,520.607544 
	C482.110504,516.042297 482.152405,512.127625 475.876770,512.641357 
	C475.011902,512.712158 474.103271,511.784119 473.163025,511.477539 
	C468.532410,509.967560 463.957336,508.153198 459.211914,507.185486 
	C456.804138,506.694458 454.078369,507.765961 451.495880,508.127655 
	C449.351654,508.427948 447.206757,508.723267 445.043335,508.551147 
	C445.027466,495.722870 445.030426,483.364258 445.033386,471.005615 
	C446.521149,470.375977 447.965851,469.594086 449.508301,469.157684 
	C451.198944,468.679413 453.109009,467.954620 454.699097,468.318298 
	C461.978912,469.983154 469.116577,472.312988 476.432587,473.760712 
	C481.075226,474.679413 482.292206,476.962860 482.079498,481.315430 
	C481.853882,485.931519 482.298004,490.580322 482.659332,495.555573 
	C482.889008,529.584167 482.908966,563.272095 482.898529,597.415466 
z"/>
<path fill="#185C86" opacity="1.000000" stroke="none" 
	d="
M413.695129,453.972748 
	C413.793243,456.873627 412.677490,457.151123 410.377930,455.898529 
	C408.237396,454.732605 405.899567,453.683105 403.525604,453.237030 
	C396.160645,451.853088 388.747650,450.710114 381.332977,449.610748 
	C375.827759,448.794495 370.281128,448.257721 364.775726,447.442444 
	C363.562775,447.262817 362.458466,446.403351 361.282135,445.909271 
	C359.773224,445.275421 357.867493,443.788879 356.781372,444.238037 
	C349.835968,447.110352 343.954834,442.696503 338.991638,440.145874 
	C332.366882,436.741364 324.528015,433.939026 320.135071,426.510559 
	C329.336853,425.140045 338.664185,423.016174 347.942291,423.212830 
	C372.916290,423.742340 394.352844,433.200134 411.767334,451.324036 
	C412.438934,452.023071 412.869995,452.953247 413.695129,453.972748 
z"/>
<path fill="#072134" opacity="1.000000" stroke="none" 
	d="
M583.994202,685.000000 
	C586.688416,687.188354 589.598145,689.161316 592.038696,691.603210 
	C601.447632,701.017334 600.167969,713.032043 589.371582,723.217102 
	C583.343872,728.903564 568.491211,728.540344 561.166992,719.766235 
	C554.465637,711.738281 554.475708,698.380005 562.434021,691.987244 
	C564.332642,690.462158 565.701721,688.277954 567.991272,686.162109 
	C573.776855,685.618164 578.885498,685.309082 583.994202,685.000000 
z"/>
<path fill="#12486A" opacity="1.000000" stroke="none" 
	d="
M459.815186,412.507904 
	C457.413300,414.270691 454.977417,416.741577 452.730713,416.580139 
	C449.698303,416.362305 446.811371,414.119720 442.698090,412.203888 
	C442.071594,414.386749 441.338104,417.481903 440.272064,420.457886 
	C439.613159,422.297302 438.448242,423.955444 437.214966,425.872681 
	C423.034943,412.575134 409.150391,399.099854 395.433167,385.165955 
	C398.934875,384.708344 402.447937,384.041351 405.559845,384.873871 
	C409.768402,385.999817 411.933319,384.876495 413.035126,380.917419 
	C421.079346,388.504700 429.078033,396.141541 437.218201,403.624451 
	C438.403229,404.713776 440.264526,405.067352 441.812897,405.761414 
	C442.215912,404.274475 442.905457,402.799713 442.969025,401.298401 
	C443.171906,396.506409 443.142365,391.704529 443.790466,386.436005 
	C449.510101,384.633911 454.641876,383.302307 459.773621,381.970703 
	C459.804230,391.994934 459.834839,402.019135 459.815186,412.507904 
z"/>
<path fill="#106EA7" opacity="1.000000" stroke="none" 
	d="
M592.614380,746.093628 
	C592.158508,747.133179 591.314331,748.106384 589.937439,749.693848 
	C599.449280,751.178223 608.354797,752.567993 617.649231,753.993103 
	C608.469299,758.008179 599.153259,762.849854 589.267395,765.747742 
	C577.122437,769.307861 564.525208,771.364746 552.072876,773.814026 
	C548.085571,774.598145 543.937378,774.564148 539.164429,774.686218 
	C533.635986,770.304443 531.935303,764.843140 531.532227,758.692505 
	C533.595520,758.112915 535.297424,757.634827 536.999329,757.156738 
	C553.807129,755.376709 570.458801,752.752380 586.694519,747.905823 
	C588.559143,747.349182 590.383301,746.656799 592.614380,746.093628 
z"/>
<path fill="#0D3956" opacity="1.000000" stroke="none" 
	d="
M568.189880,612.991760 
	C564.989807,609.692444 561.814392,606.368713 558.583740,603.099609 
	C554.019836,598.481262 549.431396,593.886780 544.820496,589.315308 
	C542.671753,587.184875 542.386902,585.130859 544.638611,582.856873 
	C547.144653,580.325989 549.546509,577.692017 552.992249,574.046570 
	C556.098267,577.676636 558.527222,580.874756 561.364685,583.656311 
	C562.515991,584.784973 564.556763,585.006287 566.192871,585.640381 
	C566.782715,584.050110 567.572998,582.499939 567.901917,580.857422 
	C568.190430,579.416870 567.831482,577.858948 567.988098,576.377136 
	C568.307495,573.355103 568.140015,568.079407 569.308411,567.749084 
	C573.317383,566.616211 577.835510,566.999634 582.111084,567.367798 
	C582.853149,567.431763 583.869568,570.220459 583.892822,571.763672 
	C584.048340,582.083618 583.927185,592.407532 584.011475,602.729126 
	C584.024048,604.268921 584.644043,605.803650 585.022034,608.130005 
	C584.921326,614.588867 584.781555,620.258484 584.229614,625.918091 
	C583.000061,625.447388 581.501770,625.032410 581.467285,624.518982 
	C580.904724,616.145630 573.253601,616.069031 568.189880,612.991760 
z"/>
<path fill="#072134" opacity="1.000000" stroke="none" 
	d="
M467.098083,752.062805 
	C466.943573,754.509033 466.067993,757.181519 466.752991,759.364319 
	C470.824951,772.339905 470.121826,780.036011 458.904938,789.550476 
	C452.209137,795.230103 440.961212,796.018433 433.883728,790.819824 
	C426.367859,785.299255 421.047302,778.701111 421.888214,768.325439 
	C422.700043,758.308777 433.253113,747.301208 443.396912,746.979004 
	C445.367188,746.916382 447.328064,746.558044 449.915161,746.448303 
	C456.057373,748.394592 461.577728,750.228699 467.098083,752.062805 
M457.942230,769.299805 
	C456.170593,761.298096 450.263977,756.765137 443.119202,757.923950 
	C436.900635,758.932556 432.708466,765.308533 433.168640,773.695312 
	C436.438477,781.209961 441.748688,784.401184 448.546143,782.936401 
	C453.996338,781.762024 457.648895,776.691162 457.942230,769.299805 
z"/>
<path fill="#082A42" opacity="1.000000" stroke="none" 
	d="
M447.960266,661.959595 
	C459.854370,649.921448 471.912659,638.039673 483.583771,625.789124 
	C491.100891,617.898865 498.049377,609.466858 505.567139,601.574585 
	C505.534882,611.260010 505.188232,620.648499 504.841614,630.036926 
	C502.105896,631.987854 499.033234,633.602234 496.691437,635.946655 
	C485.215057,647.435547 473.933228,659.118774 462.174744,670.564819 
	C457.939209,669.617920 454.111542,668.839539 450.283905,668.061157 
	C450.099487,668.519592 449.915100,668.978027 449.730713,669.436462 
	C449.140564,666.944153 448.550415,664.451843 447.960266,661.959595 
z"/>
<path fill="#051B2C" opacity="1.000000" stroke="none" 
	d="
M521.907104,796.952454 
	C524.604126,799.804077 527.118835,802.859558 530.034180,805.467163 
	C537.232788,811.906128 537.893555,819.997375 535.187622,828.285889 
	C532.564087,836.321960 526.408936,841.489746 518.252625,843.884399 
	C505.004669,847.773987 494.672119,838.123474 490.666199,828.825500 
	C485.967773,817.920227 491.683563,805.302368 503.230713,799.080383 
	C504.092285,798.616150 504.894592,798.041870 506.376404,797.247437 
	C511.987915,796.968201 516.947510,796.960327 521.907104,796.952454 
M524.376465,816.898193 
	C524.376465,816.898193 524.418152,816.656067 524.257141,815.981873 
	C520.708374,809.621155 516.281372,807.536560 509.419281,808.995056 
	C503.986694,810.149658 500.723450,814.448669 500.143555,821.595581 
	C500.419128,822.392029 500.694702,823.188538 500.949158,824.490356 
	C501.023865,824.641541 501.098572,824.792664 501.145142,825.644653 
	C503.470306,831.083618 507.625366,833.901428 513.502563,833.637634 
	C519.160095,833.383789 522.980164,830.390503 524.995911,824.090820 
	C524.708313,821.682007 524.420654,819.273132 524.376465,816.898193 
z"/>
<path fill="#2CAEE1" opacity="1.000000" stroke="none" 
	d="
M565.954346,373.906860 
	C579.915100,359.494843 593.707214,344.914093 607.900818,330.735168 
	C616.222107,322.422455 629.313354,322.717957 639.626343,331.330231 
	C619.894348,342.108856 603.982849,357.015137 589.158081,374.021729 
	C588.379028,374.491455 588.182434,374.743652 588.050598,375.046356 
	C588.050598,375.046356 588.000000,375.000000 587.817505,375.144653 
	C587.377869,375.490570 587.185730,375.741547 587.058533,376.042206 
	C587.058533,376.042206 587.017578,376.016968 586.588684,376.019714 
	C579.975586,375.823029 573.789551,375.662140 567.610352,375.360596 
	C567.036072,375.332581 566.505371,374.412689 565.954346,373.906860 
z"/>
<path fill="#1A85C4" opacity="1.000000" stroke="none" 
	d="
M505.049225,630.410339 
	C505.188232,620.648499 505.534882,611.260010 505.849609,601.399292 
	C511.139587,594.682922 516.461487,588.438843 521.937805,582.013550 
	C521.937805,609.777832 521.937805,636.914001 521.552124,664.593811 
	C516.592041,665.137512 512.017700,665.137512 507.381104,665.137512 
	C507.026917,671.161377 506.622437,678.040222 506.217987,684.919067 
	C506.142120,668.630737 506.087830,652.342163 505.959320,636.054260 
	C505.945435,634.295654 505.501343,632.540527 505.049225,630.410339 
z"/>
<path fill="#165279" opacity="1.000000" stroke="none" 
	d="
M412.871796,380.631042 
	C411.933319,384.876495 409.768402,385.999817 405.559845,384.873871 
	C402.447937,384.041351 398.934875,384.708344 395.275421,384.869049 
	C393.958313,384.157196 392.768463,383.427643 392.009094,382.384735 
	C388.957581,378.193909 385.246490,377.429108 380.309845,378.915131 
	C373.687286,380.908569 366.568756,376.959686 362.410248,369.696899 
	C359.739532,365.032501 360.958496,356.835938 364.956329,352.576263 
	C373.941437,343.002655 385.067261,343.426758 391.722809,354.784851 
	C397.439880,364.541229 404.846588,372.541199 412.871796,380.631042 
z"/>
<path fill="#0D3956" opacity="1.000000" stroke="none" 
	d="
M625.006958,502.638184 
	C618.250061,504.457123 611.936768,506.227509 604.799194,505.409790 
	C599.715454,504.827393 594.240784,507.658112 588.550049,508.963318 
	C589.430664,497.423157 591.105103,485.984680 596.679688,475.212097 
	C602.037109,476.233154 607.016418,476.154327 612.342041,475.794647 
	C620.503601,475.243439 628.827759,477.101044 637.463684,477.955750 
	C633.624573,486.088562 629.404724,494.201904 625.006958,502.638184 
z"/>
<path fill="#12486A" opacity="1.000000" stroke="none" 
	d="
M680.540039,422.161804 
	C680.965027,424.373260 681.465515,426.708954 680.793823,428.636047 
	C680.121826,430.564209 678.531738,432.405823 676.885315,433.703003 
	C674.726868,435.403381 671.564880,436.035278 669.802490,437.996552 
	C663.090027,445.466736 654.148560,447.899719 644.936096,449.940460 
	C644.613464,450.011902 644.180969,449.908722 643.963501,450.086914 
	C637.713867,455.207214 630.092407,455.830383 622.541260,457.184998 
	C618.337463,457.939117 614.793518,458.498505 611.215393,455.140808 
	C616.641602,449.614441 622.053101,443.854523 628.196960,439.026581 
	C640.908813,429.037445 655.835815,424.534088 671.754944,422.971100 
	C674.538635,422.697815 677.319519,422.395752 680.540039,422.161804 
z"/>
<path fill="#2CAEE1" opacity="1.000000" stroke="none" 
	d="
M291.961456,373.923859 
	C296.404175,367.707764 300.368652,361.070679 305.391174,355.364960 
	C315.228149,344.189941 325.647308,333.526917 335.855988,322.680695 
	C336.502960,321.993347 337.412079,321.552765 338.779114,321.241211 
	C342.598877,325.671692 345.838776,329.858337 349.078674,334.045013 
	C342.968781,340.229095 336.541168,346.135071 330.825745,352.664459 
	C322.843994,361.782990 315.393951,371.366974 307.061768,380.821655 
	C302.656616,378.423950 299.403046,374.877747 294.188171,375.655853 
	C293.546356,375.751587 292.708466,374.533234 291.961456,373.923859 
z"/>
<path fill="#123E5B" opacity="1.000000" stroke="none" 
	d="
M656.140259,316.414520 
	C657.877502,310.461578 660.519409,309.333038 664.544617,312.650635 
	C666.308044,310.661224 668.083008,308.658691 669.941895,306.307922 
	C685.252441,320.758698 700.479187,335.557709 715.791382,350.996338 
	C712.215637,355.393036 708.560425,359.156128 704.874756,362.889160 
	C704.692688,363.073578 704.245056,362.995789 703.921082,363.040070 
	C690.668152,346.330597 675.285034,331.807648 658.480042,318.740692 
	C657.697937,318.132568 657.022461,317.387207 656.140259,316.414520 
z"/>
<path fill="#0C2F46" opacity="1.000000" stroke="none" 
	d="
M285.886780,520.511841 
	C281.634583,521.537842 278.098572,520.254883 274.842743,517.494324 
	C273.412689,516.281738 271.256622,515.045715 269.549774,515.194214 
	C262.810303,515.780823 256.813690,513.583313 250.453552,511.064819 
	C251.735291,502.787201 253.157455,494.533875 255.103470,486.406036 
	C256.013336,482.605927 257.935669,479.048279 259.814758,475.464203 
	C265.777039,480.905212 271.275116,486.315308 276.935974,491.549377 
	C277.594452,492.158203 279.162445,491.924683 280.294647,491.854156 
	C284.237488,491.608490 288.174103,491.262726 292.113068,490.955017 
	C292.113068,490.954987 292.055389,490.990234 292.042511,491.263794 
	C292.031830,491.741791 292.034058,491.946198 292.036316,492.150635 
	C288.528809,501.128571 284.666565,510.028748 285.886780,520.511841 
z"/>
<path fill="#2397D4" opacity="1.000000" stroke="none" 
	d="
M593.080322,615.949829 
	C594.525940,616.956726 596.127014,617.799500 597.392090,618.997131 
	C605.554382,626.724243 613.586182,634.589783 621.791016,642.270874 
	C624.248779,644.571655 626.929932,645.806580 630.867493,645.218140 
	C641.544495,643.622437 647.730042,647.593994 652.879028,658.921631 
	C651.636597,659.813965 650.476562,660.202698 649.311707,660.217407 
	C641.285095,660.319092 633.254883,660.478149 625.231384,660.326294 
	C621.888245,660.263062 618.558655,659.484497 615.222900,659.031128 
	C606.562378,650.244873 597.901917,641.458557 589.122437,631.966309 
	C590.362366,626.156921 591.721313,621.053345 593.080322,615.949829 
z"/>
<path fill="#2CAEE1" opacity="1.000000" stroke="none" 
	d="
M506.198669,288.979706 
	C506.140564,285.486053 505.780334,281.964569 506.099457,278.505707 
	C506.514862,274.003418 504.727783,272.387787 500.416229,272.976898 
	C499.272888,273.133148 498.088623,272.989990 496.765991,272.717804 
	C502.397095,271.115356 503.880981,266.310211 504.379181,261.538422 
	C504.586090,259.556732 502.226379,257.307037 501.033875,255.179214 
	C504.702393,254.962128 506.152252,253.022003 506.049438,249.365692 
	C505.886139,243.556854 506.016388,237.739777 506.448395,231.537170 
	C508.435547,231.095505 510.020691,231.197021 511.553162,230.959061 
	C515.081970,230.411148 518.585144,229.698227 522.098755,229.052246 
	C522.040527,248.076035 521.982300,267.099823 521.681396,286.919983 
	C521.289978,289.805084 521.141296,291.893860 520.585327,293.981262 
	C515.518311,292.313171 510.858490,290.646454 506.198669,288.979706 
z"/>
<path fill="#185C86" opacity="1.000000" stroke="none" 
	d="
M441.903137,349.046448 
	C441.903137,349.046448 441.435455,348.947815 441.047607,348.724915 
	C440.434479,348.297577 440.178589,348.144104 439.892090,348.041595 
	C428.137329,340.917969 423.931152,330.790558 429.829102,319.393311 
	C433.669037,322.893829 437.748688,323.332275 442.252960,322.763550 
	C444.983612,322.418823 447.789795,322.635803 450.561493,322.659821 
	C456.393433,322.710327 462.225006,322.799957 468.056732,322.873535 
	C470.846832,330.590820 468.566620,337.114136 463.450012,343.059753 
	C462.092377,344.637299 461.098602,346.527985 459.502045,348.726166 
	C453.867798,352.732086 448.340424,350.235809 442.938843,350.053894 
	C442.938843,350.053894 442.968079,349.996399 442.828247,349.821869 
	C442.471283,349.388702 442.209534,349.188385 441.903137,349.046448 
z"/>
<path fill="#33C0F1" opacity="1.000000" stroke="none" 
	d="
M349.387054,333.905212 
	C345.838776,329.858337 342.598877,325.671692 339.126892,321.220703 
	C349.688446,312.382019 360.482086,303.807617 371.599731,295.104797 
	C375.214661,298.843536 376.893280,295.119232 378.643951,293.612793 
	C385.808868,295.322052 392.650116,296.954102 399.759583,298.832397 
	C386.029877,308.375275 371.998779,317.622620 358.060638,327.007965 
	C355.098541,329.002472 352.474976,331.499786 349.387054,333.905212 
z"/>
<path fill="#082A42" opacity="1.000000" stroke="none" 
	d="
M735.085449,376.979065 
	C739.002930,382.902100 743.316711,388.604767 746.757568,394.792877 
	C754.526062,408.763947 760.724548,423.436859 764.723450,438.969482 
	C764.876465,439.564026 764.742920,440.232391 764.742920,441.849823 
	C762.979675,440.172180 761.829468,439.092255 760.695068,437.995941 
	C755.227173,432.711639 749.670593,427.514557 744.333740,422.100922 
	C741.226318,418.948792 737.955505,415.764923 735.668152,412.037048 
	C730.816101,404.128815 726.559509,395.855255 722.356689,387.360413 
	C725.195435,384.927826 727.731750,382.860962 730.278381,380.806885 
	C731.872742,379.520966 733.482544,378.254333 735.085449,376.979065 
z"/>
<path fill="#0C2F46" opacity="1.000000" stroke="none" 
	d="
M746.858887,448.627686 
	C747.218262,451.709503 747.211426,454.541443 747.636902,457.306824 
	C748.212463,461.047638 746.748291,463.297852 743.349304,464.689117 
	C736.487122,467.497925 731.880188,472.994629 727.109802,478.767883 
	C720.118347,474.246918 713.279419,469.412872 706.504028,464.095459 
	C711.336487,463.618988 714.066589,461.249634 715.282227,456.645386 
	C715.679749,455.139862 716.987610,453.841339 717.992432,452.535370 
	C722.102417,447.193848 726.256165,441.886047 730.393738,436.565796 
	C735.824280,440.493225 741.254761,444.420685 746.858887,448.627686 
z"/>
<path fill="#36CAF5" opacity="1.000000" stroke="none" 
	d="
M493.959595,220.104950 
	C484.539825,205.748169 491.157928,190.987671 504.829712,184.888931 
	C519.426514,178.377548 534.483093,190.393753 535.642456,204.312576 
	C531.697083,203.984070 528.040588,202.938721 524.456970,203.147141 
	C518.018066,203.521667 512.167053,206.298584 506.092072,208.320114 
	C499.500763,210.513504 496.184357,214.302322 493.959595,220.104950 
z"/>
<path fill="#0D3956" opacity="1.000000" stroke="none" 
	d="
M292.227661,490.707916 
	C288.174103,491.262726 284.237488,491.608490 280.294647,491.854156 
	C279.162445,491.924683 277.594452,492.158203 276.935974,491.549377 
	C271.275116,486.315308 265.777039,480.905212 260.077148,475.225403 
	C263.722870,469.031921 267.521820,463.160706 271.906158,457.308899 
	C273.775085,458.801605 274.778442,460.918945 276.396606,461.622803 
	C280.614838,463.457672 285.045349,464.888458 289.500031,466.070282 
	C293.335358,467.087799 296.628082,468.605865 296.830902,472.957977 
	C297.010193,476.805542 299.172424,477.204620 302.104248,477.038177 
	C298.850250,481.512390 295.596252,485.986603 292.227661,490.707916 
z"/>
<path fill="#33C0F1" opacity="1.000000" stroke="none" 
	d="
M494.084778,220.414124 
	C496.184357,214.302322 499.500763,210.513504 506.092072,208.320114 
	C512.167053,206.298584 518.018066,203.521667 524.456970,203.147141 
	C528.040588,202.938721 531.697083,203.984070 535.575317,204.715698 
	C537.816711,216.403961 530.824646,222.895493 522.408386,228.912689 
	C518.585144,229.698227 515.081970,230.411148 511.553162,230.959061 
	C510.020691,231.197021 508.435547,231.095505 506.526001,231.074310 
	C502.188446,227.574753 498.199219,224.149033 494.084778,220.414124 
z"/>
<path fill="#072134" opacity="1.000000" stroke="none" 
	d="
M447.711731,662.178223 
	C448.550415,664.451843 449.140564,666.944153 449.730713,669.436462 
	C449.915100,668.978027 450.099487,668.519592 450.283905,668.061157 
	C454.111542,668.839539 457.939209,669.617920 461.890198,670.742371 
	C460.753723,672.095886 459.506714,673.119995 458.229675,674.105225 
	C457.321045,674.806152 455.891571,675.254150 455.514465,676.157288 
	C451.256683,686.355408 441.481934,691.651184 434.805359,699.680054 
	C433.111847,701.716614 431.285156,703.642334 429.025452,705.584045 
	C424.595978,704.368713 420.722443,702.836060 416.703735,702.130859 
	C413.997437,701.655945 412.798584,700.740723 413.014679,698.059082 
	C423.319885,687.553650 433.634521,677.057373 443.918304,666.531006 
	C445.184204,665.235229 446.285553,663.778748 447.711731,662.178223 
z"/>
<path fill="#0F4160" opacity="1.000000" stroke="none" 
	d="
M302.386292,476.864929 
	C299.172424,477.204620 297.010193,476.805542 296.830902,472.957977 
	C296.628082,468.605865 293.335358,467.087799 289.500031,466.070282 
	C285.045349,464.888458 280.614838,463.457672 276.396606,461.622803 
	C274.778442,460.918945 273.775085,458.801605 272.195221,457.138550 
	C277.385559,451.699066 282.872284,446.449371 288.668823,441.413879 
	C290.125305,443.293335 290.930878,445.430939 292.474945,446.545807 
	C301.239410,452.874084 310.180481,458.957764 319.061432,465.124695 
	C313.597046,468.980347 308.132690,472.835999 302.386292,476.864929 
z"/>
<path fill="#2397D4" opacity="1.000000" stroke="none" 
	d="
M698.415771,690.896606 
	C694.004211,691.208862 689.866760,691.707153 685.784302,691.420959 
	C683.370789,691.251831 681.044312,689.842163 678.293457,688.983521 
	C678.096497,688.698608 678.284729,688.420654 678.922485,687.924316 
	C679.633484,687.494690 679.830017,687.234436 679.961670,686.925110 
	C687.149963,677.625183 694.265198,668.267212 701.575317,659.064026 
	C703.527954,656.605835 705.370667,654.073975 709.755554,655.795410 
	C713.905579,657.424683 718.674133,657.478394 723.955322,658.355286 
	C716.679810,670.297668 708.520325,681.144287 698.415771,690.896606 
z"/>
<path fill="#1A85C4" opacity="1.000000" stroke="none" 
	d="
M615.141174,659.465332 
	C618.558655,659.484497 621.888245,660.263062 625.231384,660.326294 
	C633.254883,660.478149 641.285095,660.319092 649.311707,660.217407 
	C650.476562,660.202698 651.636597,659.813965 652.925720,659.279053 
	C653.211792,661.956299 654.242554,665.239319 653.368774,667.895996 
	C650.616150,676.265686 642.337769,684.697266 631.843323,682.880127 
	C623.378235,681.414307 614.746887,674.014282 615.029846,662.391907 
	C615.050110,661.561401 615.050049,660.730286 615.141174,659.465332 
z"/>
<path fill="#0D3956" opacity="1.000000" stroke="none" 
	d="
M730.258179,436.257751 
	C726.256165,441.886047 722.102417,447.193848 717.992432,452.535370 
	C716.987610,453.841339 715.679749,455.139862 715.282227,456.645386 
	C714.066589,461.249634 711.336487,463.618988 706.260681,463.847900 
	C701.806152,462.926483 697.658447,461.769257 693.241577,460.349487 
	C694.290588,455.846375 695.360596,451.505280 697.021057,447.403229 
	C698.002441,444.978821 699.611694,442.621033 701.480408,440.784668 
	C704.809448,437.513306 708.648438,434.763824 712.028625,431.538849 
	C712.655945,430.940277 712.127502,429.130371 712.057556,427.547119 
	C718.029297,430.126404 724.075989,433.038055 730.258179,436.257751 
z"/>
<path fill="#051B2C" opacity="1.000000" stroke="none" 
	d="
M412.714355,698.198242 
	C412.798584,700.740723 413.997437,701.655945 416.703735,702.130859 
	C420.722443,702.836060 424.595978,704.368713 428.782715,705.812378 
	C422.611420,712.318237 416.583282,719.044556 409.669434,724.685181 
	C400.298157,732.330566 389.545349,730.774536 378.110687,727.358887 
	C389.835907,717.439026 401.124939,707.888184 412.714355,698.198242 
z"/>
<path fill="#103650" opacity="1.000000" stroke="none" 
	d="
M568.134521,613.458252 
	C573.253601,616.069031 580.904724,616.145630 581.467285,624.518982 
	C581.501770,625.032410 583.000061,625.447388 584.294617,626.270935 
	C584.858521,628.076416 584.945129,629.519043 585.031738,630.961731 
	C584.665222,633.843689 584.063965,636.718750 583.980042,639.608948 
	C583.792297,646.074829 583.862122,652.548279 583.463135,659.580139 
	C579.706116,662.978943 576.471069,664.175415 572.881348,660.157410 
	C571.990906,659.160706 569.814331,659.312866 568.228943,658.936890 
	C568.179016,643.932861 568.129089,628.928833 568.134521,613.458252 
z"/>
<path fill="#106EA7" opacity="1.000000" stroke="none" 
	d="
M506.056030,685.240845 
	C506.622437,678.040222 507.026917,671.161377 507.381104,665.137512 
	C512.017700,665.137512 516.592041,665.137512 521.501770,665.058716 
	C521.864990,678.336243 521.892883,691.692505 521.497864,705.545288 
	C518.004089,706.865723 515.060425,707.874146 513.360657,703.598450 
	C512.907166,702.457520 510.765533,701.658020 509.261322,701.326721 
	C504.852753,700.356079 500.374878,699.700012 495.924133,698.920776 
	C499.247437,694.468018 502.570740,690.015320 506.056030,685.240845 
z"/>
<path fill="#12486A" opacity="1.000000" stroke="none" 
	d="
M319.441742,465.074829 
	C310.180481,458.957764 301.239410,452.874084 292.474945,446.545807 
	C290.930878,445.430939 290.125305,443.293335 288.961792,441.242371 
	C293.707458,437.909363 298.469971,434.962036 303.586639,431.946167 
	C303.516296,436.389832 305.414886,439.169403 309.962952,440.016235 
	C310.602203,440.135284 311.300537,440.304108 311.815338,440.669769 
	C320.488647,446.830627 329.137177,453.026428 337.903931,459.521790 
	C331.951813,461.561005 325.886932,463.292969 319.441742,465.074829 
z"/>
<path fill="#106EA7" opacity="1.000000" stroke="none" 
	d="
M521.750854,341.973816 
	C521.782654,354.653442 521.814453,367.333069 521.463013,380.552155 
	C519.750488,382.006012 518.212341,382.723541 517.130615,383.871246 
	C513.746094,387.462341 511.729218,387.354156 508.624237,383.251953 
	C507.962036,382.377106 507.015717,381.717316 506.200317,380.958435 
	C506.141144,368.273895 506.082001,355.589325 506.447327,342.567505 
	C511.895355,345.850800 516.813660,343.365021 521.750854,341.973816 
z"/>
<path fill="#165279" opacity="1.000000" stroke="none" 
	d="
M442.962524,350.517822 
	C448.340424,350.235809 453.867798,352.732086 459.422516,349.078247 
	C459.811096,359.666779 459.843506,370.354492 459.824768,381.506470 
	C454.641876,383.302307 449.510101,384.633911 443.938965,386.063385 
	C443.328430,374.434753 443.157318,362.708221 442.962524,350.517822 
z"/>
<path fill="#165279" opacity="1.000000" stroke="none" 
	d="
M560.170532,258.985901 
	C559.469299,261.574158 558.768066,264.162384 558.066833,266.750641 
	C558.515381,267.188416 558.963928,267.626190 559.412537,268.063934 
	C556.938965,268.370087 554.465332,268.676239 551.579590,268.973206 
	C544.707214,254.862534 556.581787,238.349396 570.028809,236.775284 
	C578.536011,235.779449 585.182495,238.029465 590.874146,244.589142 
	C590.932495,247.278854 590.377808,248.835678 587.259521,248.397614 
	C585.106262,248.095123 582.813232,248.787430 579.838318,248.923019 
	C573.033630,245.938919 568.344177,247.355804 561.805176,254.155762 
	C561.381165,254.867508 561.175537,255.392059 560.986084,255.946930 
	C561.002258,255.977264 560.939270,256.004944 560.722778,256.285370 
	C560.379700,257.258484 560.253113,257.951202 560.214111,258.719543 
	C560.301697,258.795166 560.170532,258.985901 560.170532,258.985901 
z"/>
<path fill="#103650" opacity="1.000000" stroke="none" 
	d="
M735.002686,376.637848 
	C733.482544,378.254333 731.872742,379.520966 730.278381,380.806885 
	C727.731750,382.860962 725.195435,384.927826 722.281006,387.017487 
	C716.023621,379.238495 710.140015,371.431335 704.088745,363.332092 
	C704.245056,362.995789 704.692688,363.073578 704.874756,362.889160 
	C708.560425,359.156128 712.215637,355.393036 715.955688,351.286438 
	C722.329590,359.390137 728.624756,367.843414 735.002686,376.637848 
z"/>
<path fill="#1A85C4" opacity="1.000000" stroke="none" 
	d="
M521.810059,341.510010 
	C516.813660,343.365021 511.895355,345.850800 506.528931,342.103699 
	C506.132965,331.291748 506.079834,320.606323 506.535339,309.458862 
	C511.958221,308.999329 516.872498,309.001892 521.786804,309.004456 
	C521.814270,319.685059 521.841736,330.365631 521.810059,341.510010 
z"/>
<path fill="#2397D4" opacity="1.000000" stroke="none" 
	d="
M565.643066,374.039612 
	C566.505371,374.412689 567.036072,375.332581 567.610352,375.360596 
	C573.789551,375.662140 579.975586,375.823029 586.599121,376.041321 
	C580.384033,383.168518 573.730591,390.277893 567.071655,397.382050 
	C566.732178,397.744263 566.389404,398.135254 565.972351,398.387634 
	C563.572266,399.839966 550.875549,398.009552 549.294678,395.614807 
	C548.610657,394.578613 548.680481,392.087189 549.469299,391.191864 
	C554.593933,385.375183 560.010681,379.815887 565.643066,374.039612 
z"/>
<path fill="#2397D4" opacity="1.000000" stroke="none" 
	d="
M291.640869,374.063019 
	C292.708466,374.533234 293.546356,375.751587 294.188171,375.655853 
	C299.403046,374.877747 302.656616,378.423950 306.755890,380.967590 
	C303.556244,387.351990 300.549133,394.086151 296.126678,399.706757 
	C294.815338,401.373322 289.486664,400.189636 286.061707,399.782806 
	C283.389343,399.465363 280.814331,398.328491 277.323303,397.298187 
	C282.115479,389.390747 286.717896,381.796448 291.640869,374.063019 
z"/>
<path fill="#185C86" opacity="1.000000" stroke="none" 
	d="
M495.619934,699.063110 
	C500.374878,699.700012 504.852753,700.356079 509.261322,701.326721 
	C510.765533,701.658020 512.907166,702.457520 513.360657,703.598450 
	C515.060425,707.874146 518.004089,706.865723 521.451599,706.010620 
	C521.867249,711.671875 521.906311,717.364380 521.560547,723.595947 
	C517.413269,726.257385 515.010986,725.774353 513.358704,721.217041 
	C512.304260,718.308838 510.115875,715.368530 505.937805,717.131958 
	C505.509888,717.076111 505.082001,717.020264 504.309998,716.539307 
	C501.283600,710.935547 496.987823,708.650513 491.619537,709.292725 
	C490.066467,709.478516 488.443298,709.078552 486.852264,708.947205 
	C489.673401,705.699951 492.494568,702.452698 495.619934,699.063110 
z"/>
<path fill="#106EA7" opacity="1.000000" stroke="none" 
	d="
M468.009033,322.522644 
	C462.225006,322.799957 456.393433,322.710327 450.561493,322.659821 
	C447.789795,322.635803 444.983612,322.418823 442.252960,322.763550 
	C437.748688,323.332275 433.669037,322.893829 430.140747,319.175903 
	C434.635254,310.976959 441.305817,306.876221 450.704376,308.002625 
	C459.467163,309.052795 464.552643,314.594269 468.009033,322.522644 
z"/>
<path fill="#12486A" opacity="1.000000" stroke="none" 
	d="
M523.028198,775.135681 
	C522.973328,775.481018 522.800293,775.750366 522.127686,775.731323 
	C517.906616,770.205261 512.295532,768.115784 506.170227,766.962463 
	C506.141113,758.944275 506.112000,750.926147 506.515747,742.529053 
	C511.912720,743.091675 516.876770,744.033203 521.840820,744.974731 
	C522.118652,749.016174 522.396484,753.057678 522.838440,757.942017 
	C523.011108,764.235168 523.019653,769.685425 523.028198,775.135681 
z"/>
<path fill="#082A42" opacity="1.000000" stroke="none" 
	d="
M568.163269,659.407654 
	C569.814331,659.312866 571.990906,659.160706 572.881348,660.157410 
	C576.471069,664.175415 579.706116,662.978943 583.422119,660.043457 
	C583.820190,667.984436 583.895325,676.023682 583.982300,684.531494 
	C578.885498,685.309082 573.776855,685.618164 568.227051,685.935547 
	C567.889832,677.255310 567.993713,668.566895 568.163269,659.407654 
z"/>
<path fill="#165279" opacity="1.000000" stroke="none" 
	d="
M521.888672,744.510132 
	C516.876770,744.033203 511.912720,743.091675 506.584839,742.063477 
	C506.137726,734.001526 506.054413,726.026062 505.954468,717.591309 
	C510.115875,715.368530 512.304260,718.308838 513.358704,721.217041 
	C515.010986,725.774353 517.413269,726.257385 521.509216,724.060486 
	C521.873901,730.672485 521.905151,737.359009 521.888672,744.510132 
z"/>
<path fill="#185C86" opacity="1.000000" stroke="none" 
	d="
M506.119690,381.423828 
	C507.015717,381.717316 507.962036,382.377106 508.624237,383.251953 
	C511.729218,387.354156 513.746094,387.462341 517.130615,383.871246 
	C518.212341,382.723541 519.750488,382.006012 521.412170,381.014160 
	C521.810791,387.239136 521.845886,393.542175 521.958374,399.843811 
	C522.004456,402.422913 521.163818,403.983185 518.282837,403.932068 
	C514.486511,403.864685 510.688049,403.915558 506.039093,403.915558 
	C506.039093,396.335968 506.039093,389.112610 506.119690,381.423828 
z"/>
<path fill="#0D3956" opacity="1.000000" stroke="none" 
	d="
M506.106262,767.430176 
	C512.295532,768.115784 517.906616,770.205261 521.903931,775.833130 
	C522.003540,780.105530 521.945740,784.063843 521.409485,788.496582 
	C516.002747,788.632324 511.074493,788.293579 506.146301,787.954895 
	C506.111603,781.269226 506.076935,774.583557 506.106262,767.430176 
z"/>
<path fill="#12486A" opacity="1.000000" stroke="none" 
	d="
M498.864014,719.973145 
	C493.773376,725.197327 488.682709,730.421448 483.094177,735.591064 
	C479.262329,730.782715 474.407379,728.784973 468.896240,727.976257 
	C472.387939,724.077881 475.879669,720.179504 479.963379,716.329712 
	C486.658295,717.576538 492.761169,718.774841 498.864014,719.973145 
z"/>
<path fill="#2397D4" opacity="1.000000" stroke="none" 
	d="
M521.850769,308.560486 
	C516.872498,309.001892 511.958221,308.999329 506.614685,308.995819 
	C506.134644,302.631958 506.083923,296.269043 506.115936,289.442932 
	C510.858490,290.646454 515.518311,292.313171 520.793762,293.983582 
	C521.409424,293.987244 521.825989,293.986694 521.825989,293.986694 
	C521.865662,295.396851 521.905273,296.807037 521.742798,298.802917 
	C521.631348,299.910919 521.721924,300.433197 521.812500,300.955505 
	C521.846558,303.342529 521.880615,305.729523 521.850769,308.560486 
z"/>
<path fill="#33C0F1" opacity="1.000000" stroke="none" 
	d="
M500.585663,255.110992 
	C502.226379,257.307037 504.586090,259.556732 504.379181,261.538422 
	C503.880981,266.310211 502.397095,271.115356 496.322815,272.638611 
	C492.067566,273.530029 488.117188,274.379333 484.123871,274.897705 
	C480.060242,275.425262 475.954285,275.626831 471.433105,275.892517 
	C471.259888,275.400208 471.550201,274.609741 471.776672,274.627625 
	C478.425934,275.152924 482.566650,270.335419 487.411438,267.176392 
	C490.094391,265.427002 492.542023,263.172394 494.685089,260.777985 
	C497.060272,258.124268 495.800323,256.322174 492.343567,255.363678 
	C494.752716,255.130905 497.445099,255.086838 500.585663,255.110992 
z"/>
<path fill="#0C2F46" opacity="1.000000" stroke="none" 
	d="
M467.369354,751.877808 
	C461.577728,750.228699 456.057373,748.394592 450.306702,746.319092 
	C453.488007,742.815918 456.899689,739.554138 460.976013,736.160767 
	C466.083435,738.049377 470.531128,740.058777 474.960907,742.106873 
	C475.386627,742.303650 475.700897,742.741516 476.066895,743.067444 
	C473.258179,745.942566 470.449402,748.817688 467.369354,751.877808 
z"/>
<path fill="#0F4160" opacity="1.000000" stroke="none" 
	d="
M476.342255,742.886597 
	C475.700897,742.741516 475.386627,742.303650 474.960907,742.106873 
	C470.531128,740.058777 466.083435,738.049377 461.265106,736.004211 
	C463.366241,733.413818 465.842957,730.848511 468.607971,728.129700 
	C474.407379,728.784973 479.262329,730.782715 482.823730,735.789734 
	C480.906586,738.263855 478.762085,740.484802 476.342255,742.886597 
z"/>
<path fill="#185C86" opacity="1.000000" stroke="none" 
	d="
M523.489624,775.075012 
	C523.019653,769.685425 523.011108,764.235168 523.022461,758.305115 
	C527.402893,757.553040 531.763550,757.280823 536.561768,757.082642 
	C535.297424,757.634827 533.595520,758.112915 531.532227,758.692505 
	C531.935303,764.843140 533.635986,770.304443 538.745361,774.666992 
	C534.000183,774.915466 528.975647,774.964905 523.489624,775.075012 
z"/>
<path fill="#1A4B6A" opacity="1.000000" stroke="none" 
	d="
M445.021301,470.536530 
	C445.030426,483.364258 445.027466,495.722870 445.026001,509.017212 
	C445.051056,525.975525 445.074554,541.998108 445.098053,558.020752 
	C445.049286,578.328003 445.000488,598.635315 444.976318,619.397827 
	C444.695709,618.449646 444.124542,617.046326 444.123444,615.642700 
	C444.076965,555.771362 444.081238,495.900085 444.127319,435.572510 
	C444.451874,439.678467 444.881927,444.237762 444.969452,448.803619 
	C445.105286,455.889221 445.007751,462.979279 445.021301,470.536530 
z"/>
<path fill="#165279" opacity="1.000000" stroke="none" 
	d="
M499.040161,719.669800 
	C492.761169,718.774841 486.658295,717.576538 480.235809,716.130859 
	C482.035492,713.671326 484.154785,711.459229 486.563171,709.097168 
	C488.443298,709.078552 490.066467,709.478516 491.619537,709.292725 
	C496.987823,708.650513 501.283600,710.935547 503.995239,716.463745 
	C502.421814,717.664368 500.819061,718.515381 499.040161,719.669800 
z"/>
<path fill="#1A85C4" opacity="1.000000" stroke="none" 
	d="
M585.381958,630.984497 
	C584.945129,629.519043 584.858521,628.076416 584.706909,626.280884 
	C584.781555,620.258484 584.921326,614.588867 585.031311,608.473755 
	C587.667114,610.434509 590.332642,612.840759 593.039246,615.598389 
	C591.721313,621.053345 590.362366,626.156921 588.984375,631.663452 
	C587.887634,631.713379 586.809875,631.360291 585.381958,630.984497 
z"/>
<path fill="#082A42" opacity="1.000000" stroke="none" 
	d="
M506.096436,788.405212 
	C511.074493,788.293579 516.002747,788.632324 521.379395,788.953796 
	C521.870483,791.314331 521.913086,793.692200 521.931396,796.511230 
	C516.947510,796.960327 511.987915,796.968201 506.573822,796.958740 
	C506.095062,794.246155 506.070831,791.550842 506.096436,788.405212 
z"/>
<path fill="#12486A" opacity="1.000000" stroke="none" 
	d="
M341.419189,459.889435 
	C343.105560,457.762268 345.227905,455.698212 347.934082,459.525787 
	C345.964233,459.879242 343.909790,459.916748 341.419189,459.889435 
z"/>
<path fill="#106EA7" opacity="1.000000" stroke="none" 
	d="
M618.386597,754.023682 
	C619.443604,753.374634 620.861511,752.708801 622.667603,752.064819 
	C621.619812,752.726685 620.183716,753.366760 618.386597,754.023682 
z"/>
<path fill="#1A85C4" opacity="1.000000" stroke="none" 
	d="
M521.906616,293.558594 
	C521.825989,293.986694 521.409424,293.987244 521.201050,293.984924 
	C521.141296,291.893860 521.289978,289.805084 521.628235,287.389954 
	C521.874268,289.085876 521.930725,291.108215 521.906616,293.558594 
z"/>
<path fill="#106EA7" opacity="1.000000" stroke="none" 
	d="
M623.417969,752.034241 
	C624.165405,751.393188 625.249390,750.722961 626.702393,750.064331 
	C625.965698,750.718994 624.860107,751.362061 623.417969,752.034241 
z"/>
<path fill="#1A85C4" opacity="1.000000" stroke="none" 
	d="
M521.892151,300.642639 
	C521.721924,300.433197 521.631348,299.910919 521.682129,299.222534 
	C521.872925,299.480896 521.922363,299.905304 521.892151,300.642639 
z"/>
<path fill="#1A85C4" opacity="1.000000" stroke="none" 
	d="
M679.717590,687.013550 
	C679.830017,687.234436 679.633484,687.494690 679.162842,687.835938 
	C679.127014,687.678040 679.300293,687.390015 679.717590,687.013550 
z"/>
<path fill="#072134" opacity="1.000000" stroke="none" 
	d="
M773.805969,492.773804 
	C773.648254,492.805847 773.433655,492.588837 773.137512,492.138214 
	C773.304626,492.087250 773.535645,492.293976 773.805969,492.773804 
z"/>
<path fill="#0D3956" opacity="1.000000" stroke="none" 
	d="
M292.193359,492.019592 
	C292.034058,491.946198 292.031830,491.741791 292.036499,491.230530 
	C292.211334,491.126587 292.402313,491.316193 292.531921,491.541168 
	C292.566925,491.601929 292.415985,491.769836 292.193359,492.019592 
z"/>
<path fill="#2397D4" opacity="1.000000" stroke="none" 
	d="
M587.303711,375.972046 
	C587.185730,375.741547 587.377869,375.490570 587.841431,375.169189 
	C587.881592,375.333344 587.715271,375.617615 587.303711,375.972046 
z"/>
<path fill="#2397D4" opacity="1.000000" stroke="none" 
	d="
M588.297852,374.975037 
	C588.182434,374.743652 588.379028,374.491455 588.849487,374.168762 
	C588.887329,374.333069 588.716187,374.618408 588.297852,374.975037 
z"/>
<path fill="#165279" opacity="1.000000" stroke="none" 
	d="
M442.011322,349.279602 
	C442.209534,349.188385 442.471283,349.388702 442.827576,349.853882 
	C442.684326,349.877869 442.401917,349.695282 442.011322,349.279602 
z"/>
<path fill="#165279" opacity="1.000000" stroke="none" 
	d="
M440.001556,348.260559 
	C440.178589,348.144104 440.434479,348.297577 440.816864,348.662720 
	C440.610382,348.899292 440.322723,348.784637 440.001556,348.260559 
z"/>
<path fill="#F7E218" opacity="1.000000" stroke="none" 
	d="
M562.023621,253.968536 
	C568.344177,247.355804 573.033630,245.938919 579.422852,248.969238 
	C581.854492,252.163147 585.032410,254.938049 585.844055,258.286530 
	C587.744934,266.128601 582.549255,272.609436 574.777588,273.406250 
	C566.212036,274.284454 560.804932,269.204041 560.227356,259.387268 
	C560.170532,258.985901 560.301697,258.795166 560.479248,258.467377 
	C560.750977,257.428040 560.845154,256.716492 560.939270,256.004944 
	C560.939270,256.004944 561.002258,255.977264 561.228271,255.781525 
	C561.644043,255.046707 561.833862,254.507629 562.023621,253.968536 
z"/>
<path fill="#0C2F46" opacity="1.000000" stroke="none" 
	d="
M445.467499,558.009888 
	C445.074554,541.998108 445.051056,525.975525 445.044861,509.486847 
	C447.206757,508.723267 449.351654,508.427948 451.495880,508.127655 
	C454.078369,507.765961 456.804138,506.694458 459.211914,507.185486 
	C463.957336,508.153198 468.532410,509.967560 473.163025,511.477539 
	C474.103271,511.784119 475.011902,512.712158 475.876770,512.641357 
	C482.152405,512.127625 482.110504,516.042297 482.055389,520.607544 
	C481.884583,534.760620 481.993958,548.917053 481.988464,563.542175 
	C479.037781,564.341919 476.051361,565.155640 473.157104,564.905151 
	C466.183838,564.301575 460.021088,561.857422 455.424255,556.073120 
	C454.714874,555.180542 452.096741,555.395020 450.496277,555.734253 
	C448.856781,556.081726 447.383179,557.211548 445.467499,558.009888 
z"/>
<path fill="#2CAEE1" opacity="1.000000" stroke="none" 
	d="
M433.210999,772.993652 
	C432.708466,765.308533 436.900635,758.932556 443.119202,757.923950 
	C450.263977,756.765137 456.170593,761.298096 457.641174,769.924683 
	C455.265350,773.774048 452.468964,773.048096 449.436401,772.244324 
	C447.122009,771.630920 444.628418,771.258728 442.255188,771.411377 
	C439.219086,771.606567 436.223846,772.437012 433.210999,772.993652 
z"/>
<path fill="#2397D4" opacity="1.000000" stroke="none" 
	d="
M433.189819,773.344482 
	C436.223846,772.437012 439.219086,771.606567 442.255188,771.411377 
	C444.628418,771.258728 447.122009,771.630920 449.436401,772.244324 
	C452.468964,773.048096 455.265350,773.774048 457.582214,770.302490 
	C457.648895,776.691162 453.996338,781.762024 448.546143,782.936401 
	C441.748688,784.401184 436.438477,781.209961 433.189819,773.344482 
z"/>
<path fill="#2CAEE1" opacity="1.000000" stroke="none" 
	d="
M500.970276,823.984985 
	C500.694702,823.188538 500.419128,822.392029 500.524963,821.134888 
	C502.299225,818.084717 504.196747,817.627686 507.260559,817.752808 
	C512.955322,817.985352 518.696350,817.084839 524.418152,816.656006 
	C524.418152,816.656067 524.376465,816.898193 524.232422,817.306763 
	C524.294373,820.110962 524.500366,822.506592 524.706299,824.902161 
	C522.980164,830.390503 519.160095,833.383789 513.502563,833.637634 
	C507.625366,833.901428 503.470306,831.083618 501.211487,825.168457 
	C501.309082,824.411255 501.206573,824.175537 500.970276,823.984985 
z"/>
<path fill="#33C0F1" opacity="1.000000" stroke="none" 
	d="
M524.337646,816.318970 
	C518.696350,817.084839 512.955322,817.985352 507.260559,817.752808 
	C504.196747,817.627686 502.299225,818.084717 500.621582,820.817261 
	C500.723450,814.448669 503.986694,810.149658 509.419281,808.995056 
	C516.281372,807.536560 520.708374,809.621155 524.337646,816.318970 
z"/>
<path fill="#33C0F1" opacity="1.000000" stroke="none" 
	d="
M524.851074,824.496460 
	C524.500366,822.506592 524.294373,820.110962 524.110718,817.289856 
	C524.420654,819.273132 524.708313,821.682007 524.851074,824.496460 
z"/>
<path fill="#33C0F1" opacity="1.000000" stroke="none" 
	d="
M500.959717,824.237671 
	C501.206573,824.175537 501.309082,824.411255 501.225586,824.817993 
	C501.098572,824.792664 501.023865,824.641541 500.959717,824.237671 
z"/>
<path fill="#1A4B6A" opacity="1.000000" stroke="none" 
	d="
M561.805176,254.155762 
	C561.833862,254.507629 561.644043,255.046707 561.212036,255.751190 
	C561.175537,255.392059 561.381165,254.867508 561.805176,254.155762 
z"/>
<path fill="#1A4B6A" opacity="1.000000" stroke="none" 
	d="
M560.722778,256.285370 
	C560.845154,256.716492 560.750977,257.428040 560.391724,258.391724 
	C560.253113,257.951202 560.379700,257.258484 560.722778,256.285370 
z"/>
</svg>