<?xml version="1.0" standalone="no"?>
<!DOCTYPE svg PUBLIC "-//W3C//DTD SVG 20010904//EN"
 "http://www.w3.org/TR/2001/REC-SVG-20010904/DTD/svg10.dtd">
<svg version="1.0" xmlns="http://www.w3.org/2000/svg"
 width="1024.000000pt" height="1024.000000pt" viewBox="0 0 1024.000000 1024.000000"
 preserveAspectRatio="xMidYMid meet">

<g transform="translate(0.000000,1024.000000) scale(0.100000,-0.100000)"
fill="#000000" stroke="none">
<path d="M5660 7881 c-105 -34 -167 -112 -177 -220 -9 -100 58 -207 153 -247
78 -33 193 -7 260 57 30 29 31 29 27 7 -4 -20 8 -29 109 -82 320 -167 541
-323 770 -544 208 -202 403 -458 522 -687 42 -82 60 -103 191 -228 l144 -138
-20 73 c-68 246 -199 503 -380 744 -103 138 -129 167 -277 318 -260 263 -500
438 -847 618 l-160 83 -7 42 c-13 81 -62 149 -132 185 -43 22 -136 32 -176 19z
m126 -127 c43 -21 64 -59 64 -118 0 -109 -138 -165 -215 -88 -36 35 -48 69
-40 111 18 94 103 136 191 95z"/>
<path d="M5203 7285 c0 -22 2 -30 4 -17 2 12 2 30 0 40 -3 9 -5 -1 -4 -23z"/>
<path d="M5052 7074 c-1 -110 -5 -350 -9 -532 l-6 -332 86 0 87 0 -2 518 c-1
284 -3 498 -5 476 -4 -38 -6 -41 -31 -39 -15 1 -39 5 -55 9 -17 5 -32 4 -42
-4 -12 -10 -15 -3 -18 47 -2 32 -4 -32 -5 -143z"/>
<path d="M5072 7220 c0 -14 2 -19 5 -12 2 6 2 18 0 25 -3 6 -5 1 -5 -13z"/>
<path d="M4430 7169 c-170 -32 -227 -244 -99 -366 19 -17 46 -36 62 -42 l27
-11 0 -285 c0 -157 -3 -285 -6 -285 -3 0 -102 93 -221 208 -161 155 -224 223
-253 272 -43 73 -72 104 -113 119 -68 26 -156 -1 -201 -62 -31 -42 -30 -150 2
-195 44 -60 135 -89 196 -61 24 11 38 -1 315 -272 l291 -283 0 -1025 0 -1025
194 199 195 200 0 663 1 664 163 -4 c144 -3 167 -6 204 -25 82 -44 123 -120
123 -228 0 -86 -18 -134 -70 -185 -50 -51 -100 -70 -179 -70 l-51 0 0 -196 0
-197 113 5 c212 10 362 93 473 260 139 209 146 519 16 732 -69 114 -202 223
-327 267 -80 28 -172 39 -332 39 l-143 0 0 -90 c0 -49 -4 -90 -8 -90 -5 0 -54
44 -110 99 l-102 98 0 390 c0 384 0 390 21 409 29 26 66 92 74 132 16 78 -38
183 -113 221 -49 24 -88 30 -142 20z"/>
<path d="M2808 6348 c-9 -11 -14 -27 -11 -36 5 -11 3 -13 -7 -7 -10 6 -12 4
-7 -9 4 -9 3 -14 -2 -11 -5 3 -12 1 -15 -3 -6 -10 69 -28 149 -36 35 -3 42 -2
25 4 -14 4 -42 8 -62 9 -33 1 -38 4 -38 25 0 16 -7 26 -22 29 -21 6 -21 7 -3
27 10 11 16 22 14 24 -2 3 -12 -5 -21 -16z"/>
<path d="M2970 6310 c-8 -5 -12 -12 -9 -15 4 -3 12 1 19 10 14 17 11 19 -10 5z"/>
<path d="M2858 6273 c6 -2 18 -2 25 0 6 3 1 5 -13 5 -14 0 -19 -2 -12 -5z"/>
<path d="M5635 6270 c-3 -5 -2 -10 4 -10 5 0 13 5 16 10 3 6 2 10 -4 10 -5 0
-13 -4 -16 -10z"/>
<path d="M6628 6014 c-349 -63 -644 -331 -729 -662 -43 -171 -43 -388 1 -550
40 -145 147 -321 259 -424 261 -240 581 -316 911 -215 l45 13 305 -299 305
-299 3 243 2 244 -312 312 -313 313 -85 -71 c-147 -123 -146 -123 -248 -116
-103 6 -188 34 -270 86 -255 165 -344 484 -210 751 21 41 59 91 104 136 179
181 447 225 680 112 81 -39 192 -144 241 -228 89 -151 96 -386 17 -542 l-26
-51 136 -136 137 -136 19 25 c40 51 110 208 132 295 33 131 33 382 -1 505
-115 427 -485 712 -921 709 -58 0 -139 -7 -182 -15z"/>
<path d="M3240 6006 c-293 -62 -527 -241 -654 -501 -73 -148 -90 -230 -91
-430 0 -149 3 -180 23 -250 79 -274 261 -494 506 -614 130 -63 210 -82 374
-88 l142 -6 0 187 0 186 -98 0 c-114 0 -191 17 -276 63 -118 63 -230 192 -279
323 -30 80 -32 290 -4 374 57 169 211 319 382 373 53 17 94 22 170 21 198 -1
333 -71 482 -248 l42 -50 135 128 c75 71 136 132 136 137 0 19 -187 202 -250
244 -90 60 -198 109 -295 136 -102 27 -346 35 -445 15z"/>
<path d="M3838 4539 l-118 -111 0 -159 0 -160 -52 -57 c-176 -190 -229 -240
-267 -246 -80 -13 -151 -95 -151 -175 0 -55 36 -118 84 -146 72 -42 152 -32
213 27 42 40 57 87 49 149 l-7 49 327 331 327 331 -139 139 c-76 76 -141 139
-144 139 -3 0 -58 -50 -122 -111z"/>
<path d="M5738 4582 l-78 -3 0 -100 0 -101 -74 67 -75 67 -44 -44 c-74 -75
-73 -79 74 -224 l129 -126 0 -362 0 -363 -39 -31 c-106 -85 -108 -255 -5 -341
112 -92 273 -51 335 84 41 88 16 180 -70 257 l-51 46 0 268 c0 147 1 268 2
270 2 1 42 -34 89 -79 100 -97 125 -117 141 -117 6 0 8 -3 5 -7 -10 -9 14 -34
26 -26 5 3 7 1 4 -4 -6 -10 26 -47 34 -39 2 2 2 -18 1 -45 -5 -60 10 -102 52
-148 58 -62 142 -78 223 -42 101 46 147 197 80 262 -12 12 -16 18 -8 14 9 -5
7 2 -5 18 -23 30 -70 60 -83 52 -5 -3 -12 -1 -16 5 -8 13 -70 13 -113 1 -18
-6 -30 -6 -27 -1 5 8 -57 60 -74 60 -18 0 -71 35 -71 48 0 6 -4 12 -10 12 -5
0 -10 11 -10 25 0 19 -5 25 -17 23 -10 -2 -17 2 -15 10 1 7 -8 23 -19 35 -12
12 -18 15 -14 7 5 -9 4 -12 -1 -7 -5 5 -9 12 -9 16 0 4 -39 45 -88 92 l-87 84
0 192 c0 105 -3 193 -7 195 -5 2 -43 2 -85 0z"/>
<path d="M5202 4428 c-7 -7 -12 -20 -12 -31 0 -10 -4 -16 -9 -12 -6 3 -49 -40
-98 -97 -225 -261 -1021 -1068 -1148 -1166 -127 -97 -175 -135 -175 -143 0
-13 91 -29 165 -29 57 0 86 5 118 21 68 34 142 96 213 178 36 42 164 175 283
296 119 121 285 292 368 379 l152 160 -3 -60 c-2 -32 -4 -165 -5 -295 l-1
-236 -86 -99 c-47 -54 -173 -189 -280 -300 l-193 -201 -59 -5 c-68 -7 -108
-25 -155 -72 -98 -98 -99 -244 -2 -341 43 -44 114 -75 170 -75 47 0 116 27
157 60 79 65 106 198 59 292 l-21 43 197 197 c109 109 201 198 205 198 5 0 8
-184 8 -409 l0 -409 -23 -6 c-41 -10 -103 -73 -127 -127 -47 -112 -8 -240 94
-303 160 -99 366 22 366 216 0 63 -42 143 -97 181 l-43 31 0 118 0 118 78 0
c274 0 586 70 846 189 115 53 289 158 396 240 88 67 311 262 344 303 11 13 52
57 90 99 39 42 88 96 108 120 42 50 50 80 18 72 -15 -4 -20 0 -20 16 0 19 -6
21 -55 21 -56 0 -67 8 -40 30 8 7 15 17 15 23 0 6 -11 -3 -23 -21 -13 -17 -27
-29 -30 -25 -4 3 -7 1 -7 -5 0 -7 5 -12 10 -12 6 0 10 -7 10 -15 0 -18 -17
-20 -23 -2 -3 9 -8 9 -21 -2 -9 -8 -14 -16 -12 -19 3 -2 -6 -13 -19 -24 -14
-11 -23 -24 -19 -29 3 -5 2 -8 -3 -7 -5 2 -54 -42 -109 -97 -136 -138 -301
-273 -450 -368 -93 -60 -289 -158 -384 -192 -167 -59 -471 -115 -631 -115
l-69 0 -2 493 c-2 270 -2 666 0 880 2 213 1 387 0 387 -2 0 -9 -5 -16 -12z
m-696 -1777 c37 -22 68 -82 59 -114 -14 -50 -28 -77 -40 -77 -7 0 -16 -7 -19
-16 -4 -10 -12 -14 -23 -10 -9 4 -20 1 -25 -6 -6 -10 -10 -10 -17 1 -6 10 -5
27 5 49 17 43 18 42 -3 42 -20 0 -53 -28 -53 -47 0 -14 -19 -17 -36 -5 -19 13
-35 68 -28 98 22 90 107 130 180 85z m-101 -219 c-3 -3 -11 0 -18 7 -9 10 -8
11 6 5 10 -3 15 -9 12 -12z m781 -288 c51 -34 68 -107 39 -164 -22 -42 -53
-60 -106 -60 -55 0 -88 22 -114 76 -36 76 24 164 111 164 25 0 56 -7 70 -16z"/>
<path d="M6090 3930 c0 -5 5 -10 11 -10 5 0 7 5 4 10 -3 6 -8 10 -11 10 -2 0
-4 -4 -4 -10z"/>
<path d="M7210 3659 c0 -5 5 -7 10 -4 6 3 10 8 10 11 0 2 -4 4 -10 4 -5 0 -10
-5 -10 -11z"/>
<path d="M7120 3550 c0 -3 4 -10 8 -17 6 -9 11 -8 19 5 9 15 7 18 -8 18 -11 0
-19 -3 -19 -6z"/>
</g>
</svg>
